<svg xmlns="http://www.w3.org/2000/svg" version="1.1" xmlns:xlink="http://www.w3.org/1999/xlink" width="512" height="512" x="0" y="0" viewBox="0 0 100 100" style="enable-background:new 0 0 512 512" xml:space="preserve" class=""><g><path d="M39.046 68.627c-.543-1.092-8.913-17.833-17.477-19.939-2.887-.648-5.2-.076-5.2-.076-3.179.923-5.496 3.678-6.4 6.083-1.81 5.355.973 9.438 3.692 13.264 5.438 7.65 10.716 15.205 16.154 22.856 1.856 2.54 3.743 5.208 6.726 6.242 3.88 1.357 8.313-.558 10.952-3.665 2.768-3.139 4.093-7.148 5.45-11.028l2.423-6.734c2.777-7.504 5.844-14.942 9.07-22.285s6.613-14.587 10.289-21.768 7.383-14.232 11.507-21.251c1.063-1.763 1.998-3.494 3.061-5.257.194-.32 1.514-2.147 1.29-2.5-.224-.354-1.992.765-2.377.86-3.277 1.63-6.428 3.773-9.257 6.11-5.757 4.832-10.456 10.63-14.963 16.654a288.234 288.234 0 0 0-24.94 42.434z" fill="#04729f" opacity="1" data-original="#000000"></path></g></svg>