<svg xmlns="http://www.w3.org/2000/svg" version="1.1" xmlns:xlink="http://www.w3.org/1999/xlink" width="512" height="512" x="0" y="0" viewBox="0 0 24 24" style="enable-background:new 0 0 512 512" xml:space="preserve" class=""><g><path d="M6 19c-.3 0-.5-.1-.7-.3-.4-.4-.4-1 0-1.4l12-12c.4-.4 1-.4 1.4 0s.4 1 0 1.4l-12 12c-.2.2-.4.3-.7.3z" fill="#022f40" opacity="1" data-original="#000000"></path><path d="M18 19c-.3 0-.5-.1-.7-.3l-12-12c-.4-.4-.4-1 0-1.4s1-.4 1.4 0l12 12c.4.4.4 1 0 1.4-.2.2-.4.3-.7.3z" fill="#022f40" opacity="1" data-original="#000000"></path></g></svg>