<svg xmlns="http://www.w3.org/2000/svg" version="1.1" xmlns:xlink="http://www.w3.org/1999/xlink" width="512" height="512" x="0" y="0" viewBox="0 0 100 100" style="enable-background:new 0 0 512 512" xml:space="preserve" class=""><g><path d="m34.811 77.39 22.2-57.9a4.33 4.33 0 0 1 5.593-2.493l.054.02a4.33 4.33 0 0 1 2.493 5.593l-22.2 57.9a4.33 4.33 0 0 1-5.593 2.493l-.054-.02a4.33 4.33 0 0 1-2.493-5.593zM74.128 68.992a4.33 4.33 0 0 1 0-6.123l12.92-12.92-12.92-12.92a4.33 4.33 0 0 1 6.123-6.123l15.98 15.982a4.33 4.33 0 0 1 0 6.123l-15.98 15.981a4.33 4.33 0 0 1-6.123 0zM19.75 68.992 3.767 53.011a4.33 4.33 0 0 1 0-6.123L19.75 30.906a4.33 4.33 0 1 1 6.123 6.123l-12.92 12.92 12.92 12.92a4.33 4.33 0 0 1-6.123 6.123z" fill="#eeeeee" opacity="1" data-original="#000000"></path></g></svg>