<svg xmlns="http://www.w3.org/2000/svg" version="1.1" xmlns:xlink="http://www.w3.org/1999/xlink" width="512" height="512" x="0" y="0" viewBox="0 0 480 480" style="enable-background:new 0 0 512 512" xml:space="preserve" class=""><g><path d="M182 472a8 8 0 0 1-16 0c0-37.495-30.505-68-68-68H84c-37.495 0-68 30.505-68 68a8 8 0 0 1-16 0c0-46.318 37.682-84 84-84h14c46.318 0 84 37.682 84 84zM34 317c0-28.997 22.527-56 58-56 30.878 0 56 25.122 56 56s-25.122 56-56 56c-35.593 0-58-27.139-58-56zm58 40c22.056 0 40-17.944 40-40s-17.944-40-40-40c-26.157 0-42 19.405-42 40 0 20.437 15.647 40 42 40zm304 31h-14c-46.318 0-84 37.682-84 84a8 8 0 0 0 16 0c0-37.495 30.505-68 68-68h14c37.495 0 68 30.505 68 68a8 8 0 0 0 16 0c0-46.318-37.682-84-84-84zm50-71c0 28.997-22.527 56-58 56-30.878 0-56-25.122-56-56 0-28.997 22.527-56 58-56 30.878 0 56 25.122 56 56zm-16 0c0-22.056-17.944-40-40-40-26.157 0-42 19.405-42 40 0 20.437 15.647 40 42 40 22.056 0 40-17.944 40-40zm-93.276-57.666c4.317-6.697-2.915-9.037-7.377-30.334H410c22.056 0 40-17.944 40-40V92c0-22.056-17.944-40-40-40h-41.5a8 8 0 0 0 0 16H410c13.233 0 24 10.767 24 24v97c0 13.233-10.767 24-24 24h-90.009a8 8 0 0 0-5.957 2.66c-2.839 3.167-2.224 6.509-.905 13.771a108.385 108.385 0 0 0 3.972 15.363c-13.522-4.098-24.316-13.534-29.727-26.812a8 8 0 0 0-7.409-4.981H257c-13.233 0-24-10.767-24-24V92c0-13.233 10.767-24 24-24h55a8 8 0 0 0 8-8V40c0-22.056-17.944-40-40-40H40C17.944 0 0 17.944 0 40v115.296c0 22.056 17.944 40 40 40h63.245c-2.602 29.184-14.018 33.206-8.969 41.038a8.002 8.002 0 0 0 7.023 3.66c27.115-1.016 50.978-17.663 59.18-44.698H183.5a8 8 0 0 0 0-16h-29.238a8 8 0 0 0-7.836 6.388c-3.806 18.501-16.191 31.158-32.527 36.109a108.223 108.223 0 0 0 5.712-34.476 8.003 8.003 0 0 0-8-8.021H40c-13.234 0-24-10.766-24-24V40c0-13.234 10.766-24 24-24h240c13.234 0 24 10.766 24 24v12h-47c-22.056 0-40 17.944-40 40v97c0 22.056 17.944 40 40 40h17.839c10.673 20.867 31.835 33.132 54.861 33.995a8.001 8.001 0 0 0 7.024-3.661z" fill="#04729f" opacity="1" data-original="#000000" class=""></path></g></svg>