<?xml version="1.0" encoding="UTF-8"?>
<svg xmlns="http://www.w3.org/2000/svg" xmlns:xlink="http://www.w3.org/1999/xlink" viewBox="0 0 425.14 512" width="512" height="512"><defs><style>.cls-1{fill:url(#linear-gradient);}</style><linearGradient id="linear-gradient" y1="256" x2="425.14" y2="256" gradientUnits="userSpaceOnUse"><stop offset="0" stop-color="#012451"/><stop offset="1" stop-color="#00acd4"/></linearGradient></defs><g id="Layer_2" data-name="Layer 2"><g id="data_server" data-name="data server"><path class="cls-1" d="M374.27,287.06c-43.36,20.73-100.79,32.14-161.7,32.14S94.23,307.79,50.88,287.06C29.07,276.63,12,264.37,0,250.87V309.2c0,52.25,97.35,96.4,212.57,96.4s212.57-44.15,212.57-96.4V250.87C413.19,264.37,396.07,276.63,374.27,287.06Zm-331,30.61a9.39,9.39,0,0,1-.57,1.87,10.15,10.15,0,0,1-.92,1.72,9.57,9.57,0,0,1-1.24,1.52A10.21,10.21,0,0,1,39,324a9.87,9.87,0,0,1-1.73.92,10.1,10.1,0,0,1-1.87.57,9.84,9.84,0,0,1-2,.19,10,10,0,0,1-2-.19A10.58,10.58,0,0,1,29.6,325a10,10,0,0,1-3.24-2.17,10.14,10.14,0,0,1-2.16-3.24,9.39,9.39,0,0,1-.57-1.87,10,10,0,0,1-.2-2,9.85,9.85,0,0,1,.2-1.95,9.36,9.36,0,0,1,.56-1.87,9.87,9.87,0,0,1,.92-1.73,10.21,10.21,0,0,1,1.25-1.52,9.57,9.57,0,0,1,1.52-1.24,10.15,10.15,0,0,1,1.72-.92,10.58,10.58,0,0,1,1.87-.57,10.09,10.09,0,0,1,9,2.73,9.57,9.57,0,0,1,1.24,1.52,9.87,9.87,0,0,1,.92,1.73,9.39,9.39,0,0,1,.57,1.87,9.85,9.85,0,0,1,.2,1.95A10,10,0,0,1,43.23,317.67Zm40.7,26.83a9.57,9.57,0,0,1-1.52,1.24,9.87,9.87,0,0,1-1.73.92,10.1,10.1,0,0,1-1.87.57,9.85,9.85,0,0,1-2,.2,10,10,0,0,1-2-.2,10.34,10.34,0,0,1-1.87-.57,10.15,10.15,0,0,1-1.72-.92A9.93,9.93,0,0,1,68.54,343a9.87,9.87,0,0,1-.92-1.73,10.1,10.1,0,0,1-.57-1.87,9.84,9.84,0,0,1-.19-1.95,10,10,0,0,1,.19-2,10.58,10.58,0,0,1,.57-1.87,10.15,10.15,0,0,1,.92-1.72,9.63,9.63,0,0,1,1.25-1.52A10,10,0,0,1,73,328.19a9.56,9.56,0,0,1,1.87-.56,9.9,9.9,0,0,1,3.91,0,9.36,9.36,0,0,1,1.87.56,9.87,9.87,0,0,1,1.73.92,10.21,10.21,0,0,1,1.52,1.25,9.57,9.57,0,0,1,1.24,1.52,10.15,10.15,0,0,1,.92,1.72,10.58,10.58,0,0,1,.57,1.87,9.94,9.94,0,0,1-2.73,9ZM0,96.4C0,44.15,97.35,0,212.57,0S425.14,44.15,425.14,96.4s-97.34,96.4-212.57,96.4S0,148.65,0,96.4ZM374.27,393.46c-43.36,20.72-100.79,32.14-161.7,32.14S94.23,414.18,50.88,393.46C29.07,383,12,370.77,0,357.27V415.6C0,467.85,97.35,512,212.57,512s212.57-44.15,212.57-96.4V357.27C413.19,370.77,396.07,383,374.27,393.46Zm-331,32.78a10.1,10.1,0,0,1-.57,1.87,10.63,10.63,0,0,1-.92,1.73,10,10,0,0,1-1.24,1.52A9.57,9.57,0,0,1,39,432.6a9.87,9.87,0,0,1-1.73.92,10.1,10.1,0,0,1-1.87.57,9.85,9.85,0,0,1-2,.2,10.06,10.06,0,0,1-7.07-2.93,10.75,10.75,0,0,1-1.25-1.52,10.58,10.58,0,0,1-.91-1.73,9.39,9.39,0,0,1-.57-1.87,9.85,9.85,0,0,1-.2-1.95,10,10,0,0,1,.2-2,9.39,9.39,0,0,1,.57-1.87,10.58,10.58,0,0,1,.91-1.73,10.75,10.75,0,0,1,1.25-1.52A9.57,9.57,0,0,1,27.88,416a10.15,10.15,0,0,1,1.72-.92,10.58,10.58,0,0,1,1.87-.57,9.9,9.9,0,0,1,3.91,0,10.1,10.1,0,0,1,1.87.57A9.87,9.87,0,0,1,39,416a9.57,9.57,0,0,1,1.52,1.24,10,10,0,0,1,1.24,1.52,10.63,10.63,0,0,1,.92,1.73,10.1,10.1,0,0,1,.57,1.87,10,10,0,0,1,.2,2A9.85,9.85,0,0,1,43.23,426.24ZM86.66,448a10.1,10.1,0,0,1-.57,1.87,9.87,9.87,0,0,1-.92,1.73,9.72,9.72,0,0,1-2.76,2.76,9.87,9.87,0,0,1-1.73.92,9.39,9.39,0,0,1-1.87.57,9.85,9.85,0,0,1-2,.2,10,10,0,0,1-2-.2,9.81,9.81,0,0,1-1.87-.57,10.15,10.15,0,0,1-1.72-.92,9.57,9.57,0,0,1-1.52-1.24,10.21,10.21,0,0,1-1.25-1.52,9.87,9.87,0,0,1-.92-1.73,10.1,10.1,0,0,1-.57-1.87,10.1,10.1,0,0,1,0-3.9,10.1,10.1,0,0,1,.57-1.87,9.87,9.87,0,0,1,.92-1.73,10.21,10.21,0,0,1,1.25-1.52,9.57,9.57,0,0,1,1.52-1.24,10.15,10.15,0,0,1,1.72-.92,10,10,0,0,1,5.78-.57,9.39,9.39,0,0,1,1.87.57,9.25,9.25,0,0,1,1.73.92,9.72,9.72,0,0,1,2.76,2.76,9.87,9.87,0,0,1,.92,1.73,10.1,10.1,0,0,1,.57,1.87,9.61,9.61,0,0,1,0,3.9ZM374.27,180.66c-43.36,20.72-100.79,32.14-161.7,32.14S94.23,201.38,50.88,180.66C29.07,170.23,12,158,0,144.47V202.8c0,52.25,97.35,96.4,212.57,96.4s212.57-44.15,212.57-96.4V144.47C413.19,158,396.07,170.23,374.27,180.66Zm-331,28.44a10.58,10.58,0,0,1-.57,1.87,10.15,10.15,0,0,1-.92,1.72,9.57,9.57,0,0,1-1.24,1.52A10.21,10.21,0,0,1,39,215.46a9.87,9.87,0,0,1-1.73.92,10.1,10.1,0,0,1-1.87.57,9.84,9.84,0,0,1-2,.19,10,10,0,0,1-7.07-2.93,10.21,10.21,0,0,1-1.25-1.52A10.1,10.1,0,0,1,24.2,211a9.81,9.81,0,0,1-.57-1.87,10,10,0,0,1-.2-2,9.85,9.85,0,0,1,.2-1.95,9.39,9.39,0,0,1,.57-1.87,9.83,9.83,0,0,1,.91-1.73,10.21,10.21,0,0,1,1.25-1.52,10,10,0,0,1,10.89-2.16,9.87,9.87,0,0,1,1.73.92,9.72,9.72,0,0,1,2.76,2.76,10.24,10.24,0,0,1,.92,1.73,10.1,10.1,0,0,1,.57,1.87,9.85,9.85,0,0,1,.2,1.95A10,10,0,0,1,43.23,209.1Zm40.7,26.83a9.94,9.94,0,0,1-9,2.73,10.58,10.58,0,0,1-1.87-.57,10.15,10.15,0,0,1-1.72-.92,9.57,9.57,0,0,1-1.52-1.24,10,10,0,0,1-2.74-9,10.58,10.58,0,0,1,.57-1.87A10,10,0,0,1,73,219.62a10.58,10.58,0,0,1,1.87-.57,10.09,10.09,0,0,1,9,2.74,9.57,9.57,0,0,1,1.24,1.52,10.15,10.15,0,0,1,.92,1.72,10.58,10.58,0,0,1,.57,1.87,9.94,9.94,0,0,1-2.73,9Z"/></g></g></svg>
