<svg xmlns="http://www.w3.org/2000/svg" version="1.1" xmlns:xlink="http://www.w3.org/1999/xlink" width="512" height="512" x="0" y="0" viewBox="0 0 24 24" style="enable-background:new 0 0 512 512" xml:space="preserve" class=""><g><path d="M19.7 16.1V6.5c0-1.5-1.2-2.8-2.8-2.8H13l1.4-1.2c.3-.3.4-.7.1-1.1-.3-.3-.7-.4-1.1-.1l-3 2.5c-.2.1-.3.3-.3.6s.1.4.3.6l3 2.5c.1.1.3.2.5.2s.4-.1.6-.3c.3-.3.2-.8-.1-1.1L13 5.1h4c.7 0 1.3.6 1.3 1.3v9.7C17 16.4 16 17.6 16 19c0 1.7 1.3 3 3 3s3-1.3 3-3c0-1.4-1-2.6-2.3-2.9zM13.5 18.9l-3-2.5c-.3-.3-.8-.2-1.1.1s-.2.8.1 1.1l1.4 1.2H7c-.7 0-1.3-.6-1.3-1.3V7.9C7 7.6 8 6.4 8 5c0-1.7-1.3-3-3-3S2 3.3 2 5c0 1.4 1 2.6 2.3 2.9v9.6c0 1.5 1.2 2.8 2.8 2.8H11l-1.4 1.2c-.3.3-.4.7-.1 1.1.1.2.4.3.6.3s.3-.1.5-.2l3-2.5c.2-.1.3-.4.3-.6s-.3-.5-.4-.7z" fill="#04729f" opacity="1" data-original="#000000" class=""></path></g></svg>