<svg xmlns="http://www.w3.org/2000/svg" version="1.1" xmlns:xlink="http://www.w3.org/1999/xlink" width="512" height="512" x="0" y="0" viewBox="0 0 512 512" style="enable-background:new 0 0 512 512" xml:space="preserve" class=""><g><path fill="#04729f" fill-rule="evenodd" d="M49.53 16.01h412.93c18.45 0 33.53 15.08 33.53 33.53v412.93c0 18.45-15.08 33.53-33.53 33.53H49.53C31.08 496 16 480.92 16 462.47V49.53c.01-18.45 15.08-33.52 33.53-33.52zM485 90.6H27v371.86C27 474.85 37.15 485 49.53 485h412.93c12.38 0 22.53-10.15 22.53-22.53V90.6zm-40.76 27.94H361.8c-7.06 0-12.82 5.77-12.82 12.82v312.88c0 7.06 5.77 12.82 12.82 12.82h82.44c7.06 0 12.82-5.77 12.82-12.82V131.36c0-7.05-5.76-12.82-12.82-12.82zm-82.44-10.99c-13.12 0-23.82 10.69-23.82 23.82v312.88c0 13.12 10.69 23.82 23.82 23.82h82.44c13.12 0 23.82-10.69 23.82-23.82V131.36c0-13.12-10.69-23.82-23.82-23.82H361.8zm.58 74.54h81.27c3.04 0 5.5-2.46 5.5-5.5s-2.46-5.5-5.5-5.5h-81.27c-3.04 0-5.5 2.46-5.5 5.5.01 3.04 2.47 5.5 5.5 5.5zm0 158.87h81.27c3.04 0 5.5-2.46 5.5-5.5s-2.46-5.5-5.5-5.5h-81.27c-3.04 0-5.5 2.46-5.5 5.5.01 3.04 2.47 5.5 5.5 5.5zm47.49 95.32h33.79c3.04 0 5.5-2.46 5.5-5.5s-2.46-5.5-5.5-5.5h-33.79c-3.04 0-5.5 2.46-5.5 5.5s2.46 5.5 5.5 5.5zm-47.49 0h22.44c3.04 0 5.5-2.46 5.5-5.5s-2.46-5.5-5.5-5.5h-22.44c-3.04 0-5.5 2.46-5.5 5.5.01 3.04 2.47 5.5 5.5 5.5zm0-377.48h81.27c3.04 0 5.5-2.46 5.5-5.5s-2.46-5.5-5.5-5.5h-81.27c-3.04 0-5.5 2.46-5.5 5.5s2.47 5.5 5.5 5.5zM150.2 118.54H67.76c-7.06 0-12.82 5.77-12.82 12.82v312.88c0 7.06 5.77 12.82 12.82 12.82h82.44c7.06 0 12.82-5.77 12.82-12.82V131.36c.01-7.05-5.76-12.82-12.82-12.82zm-82.44-10.99c-13.12 0-23.82 10.69-23.82 23.82v312.88c0 13.12 10.69 23.82 23.82 23.82h82.44c13.12 0 23.82-10.69 23.82-23.82V131.36c0-13.12-10.69-23.82-23.82-23.82H67.76zm229.46 10.99h-82.44c-7.06 0-12.82 5.77-12.82 12.82v312.88c0 7.06 5.77 12.82 12.82 12.82h82.44c7.06 0 12.82-5.77 12.82-12.82V131.36c0-7.05-5.76-12.82-12.82-12.82zm-82.44-10.99c-13.12 0-23.82 10.69-23.82 23.82v312.88c0 13.12 10.69 23.82 23.82 23.82h82.44c13.12 0 23.82-10.69 23.82-23.82V131.36c0-13.12-10.69-23.82-23.82-23.82h-82.44zM68.34 150.31h51.92c3.04 0 5.5-2.46 5.5-5.5s-2.46-5.5-5.5-5.5H68.34c-3.04 0-5.5 2.46-5.5 5.5s2.47 5.5 5.5 5.5zm0 31.78h81.27c3.04 0 5.5-2.46 5.5-5.5s-2.46-5.5-5.5-5.5H68.34c-3.04 0-5.5 2.46-5.5 5.5s2.47 5.5 5.5 5.5zm0 31.77h66.8c3.04 0 5.5-2.46 5.5-5.5s-2.46-5.5-5.5-5.5h-66.8c-3.04 0-5.5 2.46-5.5 5.5s2.47 5.5 5.5 5.5zm0 31.78h81.27c3.04 0 5.5-2.46 5.5-5.5s-2.46-5.5-5.5-5.5H68.34c-3.04 0-5.5 2.46-5.5 5.5s2.47 5.5 5.5 5.5zm0 31.77h59.13c3.04 0 5.5-2.46 5.5-5.5s-2.46-5.5-5.5-5.5H68.34c-3.04 0-5.5 2.46-5.5 5.5.01 3.04 2.47 5.5 5.5 5.5zm0 31.77h40.64c3.04 0 5.5-2.46 5.5-5.5s-2.46-5.5-5.5-5.5H68.34c-3.04 0-5.5 2.46-5.5 5.5.01 3.04 2.47 5.5 5.5 5.5zm147.02-158.87h51.92c3.04 0 5.5-2.46 5.5-5.5s-2.46-5.5-5.5-5.5h-51.92c-3.04 0-5.5 2.46-5.5 5.5s2.47 5.5 5.5 5.5zm0 31.78h81.27c3.04 0 5.5-2.46 5.5-5.5s-2.46-5.5-5.5-5.5h-81.27c-3.04 0-5.5 2.46-5.5 5.5.01 3.04 2.47 5.5 5.5 5.5zm0 31.77h66.8c3.04 0 5.5-2.46 5.5-5.5s-2.46-5.5-5.5-5.5h-66.8c-3.04 0-5.5 2.46-5.5 5.5s2.47 5.5 5.5 5.5zm0 31.78h81.27c3.04 0 5.5-2.46 5.5-5.5s-2.46-5.5-5.5-5.5h-81.27c-3.04 0-5.5 2.46-5.5 5.5s2.47 5.5 5.5 5.5zm0 31.77h59.13c3.04 0 5.5-2.46 5.5-5.5s-2.46-5.5-5.5-5.5h-59.13c-3.04 0-5.5 2.46-5.5 5.5.01 3.04 2.47 5.5 5.5 5.5zm0 31.78H256c3.04 0 5.5-2.46 5.5-5.5s-2.46-5.5-5.5-5.5h-40.64c-3.04 0-5.5 2.46-5.5 5.5.01 3.03 2.47 5.5 5.5 5.5zm147.02-158.88h51.92c3.04 0 5.5-2.46 5.5-5.5s-2.46-5.5-5.5-5.5h-51.92c-3.04 0-5.5 2.46-5.5 5.5s2.47 5.5 5.5 5.5zm0 63.55h66.8c3.04 0 5.5-2.46 5.5-5.5s-2.46-5.5-5.5-5.5h-66.8c-3.04 0-5.5 2.46-5.5 5.5s2.47 5.5 5.5 5.5zm0 95.33h40.64c3.04 0 5.5-2.46 5.5-5.5s-2.46-5.5-5.5-5.5h-40.64c-3.04 0-5.5 2.46-5.5 5.5.01 3.03 2.47 5.5 5.5 5.5zm0 63.54h72.09c3.04 0 5.5-2.46 5.5-5.5s-2.46-5.5-5.5-5.5h-72.09c-3.04 0-5.5 2.46-5.5 5.5.01 3.04 2.47 5.5 5.5 5.5zm0 31.78h62.69c3.04 0 5.5-2.46 5.5-5.5s-2.46-5.5-5.5-5.5h-62.69c-3.04 0-5.5 2.46-5.5 5.5.01 3.04 2.47 5.5 5.5 5.5zm-223.93-69.9c-10.93-10.93-29.71-3.15-29.71 12.31s18.78 23.24 29.71 12.31c6.8-6.8 6.8-17.82 0-24.62zm-12.31-16.09c-15.68 0-28.4 12.71-28.4 28.4 0 15.68 12.71 28.4 28.4 28.4s28.4-12.71 28.4-28.4c0-15.68-12.71-28.4-28.4-28.4zm129.4 18.35h-27.62c-1.25 0-2.29 1.03-2.29 2.29v87.94c0 1.25 1.03 2.29 2.29 2.29h56.15c1.25 0 2.29-1.03 2.29-2.29v-59.41H270.2c-8.08 0-14.66-6.58-14.66-14.66zm23.05 19.82-12.05-12.05v8.39c0 2.01 1.65 3.66 3.66 3.66zm-13.62-29.16c-.99-1-2.39-1.65-3.79-1.66h-33.26c-7.32 0-13.28 5.96-13.28 13.28v87.94c0 7.32 5.96 13.28 13.28 13.28h56.15c7.32 0 13.28-5.96 13.28-13.28v-64.83c.01-1.13-.3-2.2-.9-3.1-.88-1.3-27.94-28.09-31.48-31.63zm166.01-83.81c-10.93-10.93-29.71-3.15-29.71 12.31s18.78 23.24 29.71 12.31c6.79-6.8 6.79-17.82 0-24.62zm-12.31-16.09c-15.68 0-28.4 12.71-28.4 28.4s12.71 28.4 28.4 28.4 28.4-12.71 28.4-28.4-12.72-28.4-28.4-28.4zM68.34 58.8h81.27c3.04 0 5.5-2.46 5.5-5.5s-2.46-5.5-5.5-5.5H68.34c-3.04 0-5.5 2.46-5.5 5.5s2.47 5.5 5.5 5.5zm147.02 0h81.27c3.04 0 5.5-2.46 5.5-5.5s-2.46-5.5-5.5-5.5h-81.27c-3.04 0-5.5 2.46-5.5 5.5s2.47 5.5 5.5 5.5zm-38.37 20.81V27H49.53C37.15 27 27 37.15 27 49.53v30.08zm147.02 0V27H187.99v52.61zm11-52.61v52.61h150V49.53C485 37.15 474.85 27 462.47 27z" clip-rule="evenodd" opacity="1" data-original="#535b63"></path></g></svg>