<svg xmlns="http://www.w3.org/2000/svg" version="1.1" xmlns:xlink="http://www.w3.org/1999/xlink" width="512" height="512" x="0" y="0" viewBox="0 0 128 128" style="enable-background:new 0 0 512 512" xml:space="preserve" class=""><g><path d="M16.95 75.082c0 1.105-.907 2.013-2.013 2.013s-2.013-.907-2.013-2.013V53.201c0-3.854 1.588-7.369 4.11-9.892 2.551-2.55 6.037-4.109 9.892-4.109h21.626c1.105 0 2.013.878 2.013 1.983s-.907 2.013-2.013 2.013H26.927c-2.749 0-5.243 1.105-7.058 2.919s-2.919 4.309-2.919 7.086zm10.912 14.71c-1.105 0-1.984-.906-1.984-2.012s.879-1.984 1.984-1.984h19.387c1.105 0 1.984.879 1.984 1.984s-.879 2.012-1.984 2.012zm51.812 0c-1.104 0-2.012-.906-2.012-2.012s.907-1.984 2.012-1.984h25.198c2.75 0 5.3 1.105 7.171 2.92 1.843 1.813 3.005 4.308 3.005 7.058v3.939c0 1.104-.879 2.012-1.984 2.012s-2.013-.907-2.013-2.012v-3.939c0-1.616-.709-3.09-1.814-4.195a6.268 6.268 0 0 0-4.364-1.786H79.674zm20.436 22.25c1.105 0 2.013.879 2.013 1.984s-.907 2.013-2.013 2.013h-6.235c-1.105 0-1.984-.907-1.984-2.013s.879-1.984 1.984-1.984zm-15.135 0c1.105 0 2.013.879 2.013 1.984s-.907 2.013-2.013 2.013h-28.91c-1.105 0-1.984-.907-1.984-2.013s.879-1.984 1.984-1.984zm-4.536-68.847a2.02 2.02 0 0 1-2.012-2.013c0-1.105.906-1.983 2.012-1.983h19.671c1.105 0 2.013.878 2.013 1.983s-.907 2.013-2.013 2.013zm34.609-17.516c0 1.105-.879 1.984-1.984 1.984s-2.013-.879-2.013-1.984V22.93a5.98 5.98 0 0 0-1.758-4.223c-1.076-1.105-2.578-1.757-4.223-1.757H43.621c-1.105 0-1.983-.907-1.983-2.012s.878-2.013 1.983-2.013h61.449c2.75 0 5.243 1.134 7.058 2.947a9.942 9.942 0 0 1 2.92 7.058zM34.154 12.924c1.105 0 2.013.907 2.013 2.013a2.02 2.02 0 0 1-2.013 2.012h-6.292c-1.105 0-1.984-.907-1.984-2.012s.879-2.013 1.984-2.013zM8.872 18.055c-.936-.595-1.219-1.843-.624-2.75a1.985 1.985 0 0 1 2.75-.624l2.947 1.899 4.28-7.086c.566-.963 1.813-1.247 2.749-.68s1.247 1.786.681 2.749l-5.386 8.872c-.566.907-1.814 1.19-2.749.595zM106.97 43.082a2.001 2.001 0 0 1-.595-2.749c.595-.936 1.813-1.191 2.748-.624l2.948 1.898 4.28-7.085a2.011 2.011 0 0 1 2.749-.681 2.013 2.013 0 0 1 .68 2.75l-5.385 8.872c-.595.935-1.814 1.19-2.749.596zM8.872 91.124a1.982 1.982 0 0 1-.624-2.748 2.003 2.003 0 0 1 2.75-.596l2.947 1.87 4.28-7.086a2.017 2.017 0 0 1 2.749-.68 2.018 2.018 0 0 1 .681 2.749l-5.386 8.872c-.566.935-1.814 1.19-2.749.623z" fill="#ffffff" opacity="1" data-original="#000000"></path><path d="M104.106 98.126h17.885c3.288 0 6.009 2.691 6.009 5.98v17.884c0 3.289-2.721 6.01-6.009 6.01h-17.885c-3.288 0-5.979-2.721-5.979-6.01v-17.884c0-3.289 2.691-5.98 5.979-5.98zm17.885 3.996h-17.885a1.971 1.971 0 0 0-1.983 1.984v17.884c0 1.106.878 2.013 1.983 2.013h17.885a2.02 2.02 0 0 0 2.013-2.013v-17.884c0-1.105-.907-1.984-2.013-1.984z" fill="#ffffff" opacity="1" data-original="#000000"></path><path d="M106.97 116.152c-.907-.567-1.19-1.814-.595-2.75a2 2 0 0 1 2.748-.595l2.948 1.871 4.28-7.058a1.964 1.964 0 0 1 2.749-.681 1.986 1.986 0 0 1 .68 2.722l-5.385 8.871a1.983 1.983 0 0 1-2.749.624zM65.645 104.503c.879-.652 2.126-.481 2.778.396.65.907.481 2.154-.426 2.807l-8.589 6.32 8.589 6.349a1.968 1.968 0 0 1 .426 2.778 1.967 1.967 0 0 1-2.778.425l-10.742-7.907a2.182 2.182 0 0 1-.426-.454c-.68-.879-.481-2.126.397-2.778zM70.633 44.244a21.648 21.648 0 0 1 3.77 1.701 20.365 20.365 0 0 1 3.374 2.438l5.3-1.956c.935-.312 1.927.057 2.409.879 0 0 3.4 5.896 3.712 6.434a1.955 1.955 0 0 1-.453 2.495l-4.336 3.656c.113.454.17.907.255 1.389.113.935.17 1.842.17 2.721s-.057 1.786-.17 2.721c-.085.454-.142.936-.255 1.39l4.336 3.627c.794.681.936 1.814.368 2.665-1.218 2.098-2.408 4.166-3.627 6.263-.511.879-1.56 1.22-2.467.879l-5.242-1.928a22.259 22.259 0 0 1-3.374 2.438 21.537 21.537 0 0 1-3.77 1.7l-.964 5.557c-.17.963-1.02 1.643-1.983 1.643h-7.399c-.992 0-1.842-.766-1.984-1.728l-.964-5.472a22.374 22.374 0 0 1-3.741-1.7 20.882 20.882 0 0 1-3.372-2.438l-5.329 1.928c-.936.369-2.013-.085-2.438-.964a1154.848 1154.848 0 0 1-3.656-6.32 2 2 0 0 1 .453-2.522l4.309-3.627c-.085-.454-.17-.936-.227-1.39-.113-.936-.17-1.843-.17-2.721s.057-1.786.17-2.721c.057-.482.142-.935.227-1.389l-4.309-3.628a2.017 2.017 0 0 1-.368-2.665 686.275 686.275 0 0 1 3.628-6.292c.481-.851 1.559-1.218 2.466-.851l5.244 1.928c1.021-.936 2.153-1.729 3.372-2.438a21.398 21.398 0 0 1 3.741-1.701l.992-5.555a2.001 2.001 0 0 1 1.956-1.645h7.399c1.021 0 1.87.737 1.983 1.729zm1.785 5.159a16.768 16.768 0 0 0-3.967-1.644 2 2 0 0 1-1.531-1.616l-.907-5.102h-4.026l-.906 5.102c-.142.737-.681 1.389-1.445 1.587a17.662 17.662 0 0 0-4.054 1.672 17.473 17.473 0 0 0-3.458 2.636c-.51.567-1.36.765-2.125.51l-4.876-1.786-2.04 3.486 3.996 3.344c.566.482.851 1.276.651 2.041-.198.709-.34 1.446-.425 2.154-.113.709-.142 1.417-.142 2.211 0 .765.028 1.502.142 2.183.085.708.227 1.389.396 2.098.228.736 0 1.586-.623 2.097l-3.968 3.345a217.25 217.25 0 0 0 2.012 3.515l4.876-1.785a2.053 2.053 0 0 1 2.097.453 16.87 16.87 0 0 0 3.486 2.693 15.87 15.87 0 0 0 3.969 1.643 2 2 0 0 1 1.53 1.616l.906 5.102H66.013l.907-5.102c.142-.737.681-1.39 1.446-1.588a17.68 17.68 0 0 0 4.052-1.671 17.24 17.24 0 0 0 3.431-2.637 1.974 1.974 0 0 1 2.126-.51l4.902 1.785c.681-1.162 1.333-2.324 2.013-3.515l-3.969-3.345a1.982 1.982 0 0 1-.651-2.012c.198-.737.34-1.446.425-2.183.085-.681.142-1.418.142-2.183 0-.793-.057-1.502-.142-2.211a17.985 17.985 0 0 0-.396-2.069 1.99 1.99 0 0 1 .623-2.126l3.969-3.344c-.651-1.162-1.332-2.324-2.013-3.486l-4.902 1.786c-.681.255-1.503.085-2.069-.482a17.906 17.906 0 0 0-3.489-2.662zM64 52.067c3.289 0 6.264 1.332 8.446 3.486a11.931 11.931 0 0 1 3.487 8.446c0 3.289-1.332 6.264-3.487 8.447-2.183 2.154-5.157 3.486-8.446 3.486a11.935 11.935 0 0 1-8.446-3.486c-2.154-2.183-3.486-5.158-3.486-8.447 0-3.288 1.332-6.292 3.486-8.446s5.159-3.486 8.446-3.486zm5.612 6.321c-1.445-1.446-3.429-2.324-5.612-2.324s-4.166.878-5.612 2.324c-1.445 1.446-2.323 3.429-2.323 5.612s.878 4.167 2.323 5.612A7.909 7.909 0 0 0 64 71.936a7.904 7.904 0 0 0 5.612-2.324A7.904 7.904 0 0 0 71.936 64a7.897 7.897 0 0 0-2.324-5.612zM6.009 73.098h17.856c3.288 0 6.01 2.693 6.01 5.981v17.885c0 3.287-2.722 5.98-6.01 5.98H6.009c-3.288 0-6.009-2.693-6.009-5.98V79.079c0-3.288 2.721-5.981 6.009-5.981zm17.856 3.997H6.009c-1.105 0-2.012.879-2.012 1.984v17.885c0 1.105.906 1.984 2.012 1.984h17.856c1.105 0 2.013-.879 2.013-1.984V79.079c0-1.105-.907-1.984-2.013-1.984zM104.106 25.027h17.885c3.288 0 6.009 2.721 6.009 6.008V48.92c0 3.288-2.721 5.98-6.009 5.98h-17.885c-3.288 0-5.979-2.693-5.979-5.98V31.036c0-3.288 2.691-6.009 5.979-6.009zm17.885 3.996h-17.885c-1.105 0-1.983.907-1.983 2.012V48.92c0 1.105.878 1.984 1.983 1.984h17.885c1.105 0 2.013-.879 2.013-1.984V31.036a2.021 2.021 0 0 0-2.013-2.013zM6.009 0h17.856c3.288 0 6.01 2.721 6.01 6.008v17.857c0 3.288-2.722 6.009-6.01 6.009H6.009C2.721 29.874 0 27.153 0 23.865V6.008C0 2.721 2.721 0 6.009 0zm17.856 3.996H6.009a2.02 2.02 0 0 0-2.012 2.012v17.857a2.02 2.02 0 0 0 2.012 2.012h17.856a2.02 2.02 0 0 0 2.013-2.012V6.008a2.02 2.02 0 0 0-2.013-2.012z" fill="#ffffff" opacity="1" data-original="#000000"></path></g></svg>