<svg xmlns="http://www.w3.org/2000/svg" version="1.1" xmlns:xlink="http://www.w3.org/1999/xlink" width="512" height="512" x="0" y="0" viewBox="0 0 512 512" style="enable-background:new 0 0 512 512" xml:space="preserve" class=""><g><path d="M279.41 408.02h-46.83c-24.53 0-44.49 19.96-44.49 44.49V491c0 3.31 2.69 6 6 6H317.9c3.31 0 6-2.69 6-6v-38.49c0-24.53-19.96-44.49-44.49-44.49zM311.9 485h-16.97v-34.48c0-3.31-2.69-6-6-6s-6 2.69-6 6V485h-53.87v-34.48c0-3.31-2.69-6-6-6s-6 2.69-6 6V485H200.1v-32.49c0-17.92 14.58-32.49 32.49-32.49h46.83c17.92 0 32.49 14.58 32.49 32.49V485zm-22.12-119.49c0-18.62-15.15-33.78-33.78-33.78s-33.78 15.15-33.78 33.78 15.15 33.78 33.78 33.78 33.78-15.15 33.78-33.78zm-55.56 0c0-12.01 9.77-21.78 21.78-21.78s21.78 9.77 21.78 21.78-9.77 21.78-21.78 21.78-21.78-9.77-21.78-21.78zm149.27-50.06a5.98 5.98 0 0 0 .52-6.92c-1.53-2.55-3.15-5.12-4.72-7.6-9.15-14.51-17.83-28.28-14.36-44.74h27.98c13.61 0 24.68-11.07 24.68-24.68V39.68c0-13.61-11.07-24.68-24.68-24.68H119.09c-13.61 0-24.68 11.07-24.68 24.68v191.84c0 13.61 11.07 24.68 24.68 24.68h27.98c3.47 16.46-5.21 30.23-14.36 44.74-1.57 2.49-3.19 5.06-4.72 7.6a6.014 6.014 0 0 0 .52 6.92 6.008 6.008 0 0 0 6.7 1.8c36.25-13.41 59.13-33.94 68.08-61.06h24.98l22.12 58.49c.88 2.33 3.12 3.88 5.61 3.88s4.73-1.54 5.61-3.88l22.12-58.49h24.98c8.95 27.12 31.83 47.65 68.08 61.06 2.38.87 5.07.15 6.7-1.81zm-64.52-66.81a6.005 6.005 0 0 0-5.8-4.45h-33.59c-2.5 0-4.73 1.54-5.61 3.88L256 295.59l-17.97-47.52a6.007 6.007 0 0 0-5.61-3.88h-33.59c-2.72 0-5.09 1.83-5.8 4.45-5.65 21.13-20.35 37.57-44.75 49.91 8.52-14.4 15.51-30.62 9.07-50.23a6.008 6.008 0 0 0-5.7-4.13h-32.56c-6.99 0-12.68-5.69-12.68-12.68V39.68c0-6.99 5.69-12.68 12.68-12.68h273.82c6.99 0 12.68 5.69 12.68 12.68v191.84c0 6.99-5.69 12.68-12.68 12.68h-32.56c-2.59 0-4.89 1.67-5.7 4.13-6.43 19.6.56 35.83 9.07 50.23-24.39-12.35-39.1-28.79-44.75-49.92zm37.43-138.72-14.82-12.87c.11-1.25.16-2.51.16-3.76s-.05-2.51-.16-3.76l14.82-12.87a5.993 5.993 0 0 0 1.26-7.53L348.94 54a5.995 5.995 0 0 0-7.15-2.67l-18.56 6.4a42.313 42.313 0 0 0-6.52-3.77l-3.73-19.26a6.008 6.008 0 0 0-5.89-4.86h-17.46c-2.87 0-5.34 2.04-5.89 4.86L280 53.96a43.144 43.144 0 0 0-6.52 3.77l-18.55-6.4c-2.72-.94-5.72.18-7.15 2.67l-.32.55c-24.44 5.15-42.74 24.59-46.81 48.74h-4.24c-2.87 0-5.34 2.04-5.89 4.86l-2.93 15.09c-1.55.75-3.05 1.62-4.47 2.59l-14.54-5.01c-2.72-.94-5.72.18-7.15 2.67l-7.09 12.28a5.993 5.993 0 0 0 1.26 7.53l11.61 10.09a37.059 37.059 0 0 0 0 5.16l-11.61 10.09a5.993 5.993 0 0 0-1.26 7.53l7.09 12.28a5.995 5.995 0 0 0 7.15 2.67l14.54-5.01c1.43.97 2.92 1.83 4.47 2.59l2.93 15.09a6.008 6.008 0 0 0 5.89 4.86h14.18c2.87 0 5.34-2.04 5.89-4.86l2.93-15.09c1.55-.75 3.05-1.62 4.47-2.59l2.89 1 4.75 10.86v18.07c0 13.96 11.36 25.33 25.32 25.33h6.34c13.96 0 25.32-11.36 25.32-25.33V197.4l17.93-40.66h.65c2.87 0 5.34-2.04 5.89-4.86l3.73-19.26c2.28-1.06 4.46-2.33 6.52-3.77l18.56 6.4c2.72.94 5.72-.18 7.15-2.67l8.73-15.12c1.44-2.5.91-5.66-1.26-7.54zm-79.89 100.11h-32.99v-7.33h32.99zm-65.52-54.07c0 4.13-3.36 7.49-7.49 7.49s-7.49-3.36-7.49-7.49 3.36-7.49 7.49-7.49 7.49 3.36 7.49 7.49zm8.02 18.81a24.43 24.43 0 0 1-6.99 4.04 6 6 0 0 0-3.79 4.48l-2.59 13.35h-4.29l-2.59-13.35a6 6 0 0 0-3.79-4.48c-2.54-.95-4.9-2.31-7-4.04a6.012 6.012 0 0 0-5.78-1.05l-12.86 4.44-2.14-3.71 10.27-8.92a5.977 5.977 0 0 0 1.98-5.52c-.22-1.33-.34-2.7-.34-4.05s.11-2.71.34-4.05c.34-2.06-.41-4.15-1.98-5.52l-10.27-8.92 2.14-3.71 12.86 4.44c1.98.68 4.17.29 5.78-1.05a24.43 24.43 0 0 1 6.99-4.04 6 6 0 0 0 3.79-4.48l1.49-7.68c.46 3.77 1.27 7.46 2.4 10.92.06.18.13.36.2.54l1.8 4.12c-.39-.02-.77-.06-1.17-.06-10.75 0-19.49 8.74-19.49 19.49s8.74 19.49 19.49 19.49c6.06 0 11.48-2.78 15.06-7.14l2.36 5.4c-.66.24-1.31.58-1.88 1.06zm44.17 54.59h-6.34c-5.19 0-9.68-2.99-11.88-7.33h30.11c-2.21 4.34-6.7 7.33-11.89 7.33zm15.16-38.65h-36.9l-27.47-62.83c-1.43-4.47-2.19-9.45-2.19-14.41 0-18.84 10.68-35.31 26.77-43.24-.75 2.26-.11 4.81 1.75 6.42l14.82 12.87c-.11 1.25-.16 2.51-.16 3.76s.05 2.51.16 3.76l-14.82 12.87a5.993 5.993 0 0 0-1.26 7.53l8.73 15.12a5.995 5.995 0 0 0 7.15 2.67l18.56-6.4c2.06 1.45 4.24 2.71 6.52 3.77l3.73 19.26a6.008 6.008 0 0 0 5.89 4.86h3.7zm62.68-68.43-16.91-5.83a5.987 5.987 0 0 0-5.78 1.05 31.22 31.22 0 0 1-9.01 5.21 6 6 0 0 0-3.79 4.48l-3.4 17.55h-7.56l-3.4-17.55a6 6 0 0 0-3.79-4.48c-3.27-1.22-6.3-2.97-9.01-5.21a6.012 6.012 0 0 0-5.78-1.05l-16.91 5.83-3.78-6.55L265.4 104a5.977 5.977 0 0 0 1.98-5.52c-.29-1.72-.43-3.47-.43-5.21s.15-3.49.43-5.21c.34-2.06-.41-4.15-1.98-5.52l-13.5-11.73 3.78-6.55 16.91 5.83c1.98.68 4.17.29 5.78-1.05 2.7-2.23 5.73-3.98 9.01-5.21a6 6 0 0 0 3.79-4.48l3.4-17.55h7.56l3.4 17.55a6 6 0 0 0 3.79 4.48c3.27 1.22 6.3 2.97 9.01 5.21a6.012 6.012 0 0 0 5.78 1.05l16.91-5.83 3.78 6.55-13.5 11.73a5.977 5.977 0 0 0-1.98 5.52c.29 1.72.43 3.47.43 5.21s-.15 3.49-.43 5.21c-.34 2.06.41 4.15 1.98 5.52l13.5 11.73zm-42.67-53.16c-13.32 0-24.16 10.84-24.16 24.16s10.84 24.16 24.16 24.16 24.16-10.84 24.16-24.16-10.83-24.16-24.16-24.16zm0 36.32c-6.71 0-12.16-5.46-12.16-12.16s5.46-12.16 12.16-12.16c6.71 0 12.16 5.46 12.16 12.16s-5.45 12.16-12.16 12.16zM125.39 408.02H78.56c-24.53 0-44.49 19.96-44.49 44.49V491c0 3.31 2.69 6 6 6h123.81c3.31 0 6-2.69 6-6v-38.49c0-24.53-19.96-44.49-44.49-44.49zM157.88 485h-16.97v-34.48c0-3.31-2.69-6-6-6s-6 2.69-6 6V485H75.04v-34.48c0-3.31-2.69-6-6-6s-6 2.69-6 6V485H46.07v-32.49c0-17.92 14.58-32.49 32.49-32.49h46.83c17.92 0 32.49 14.58 32.49 32.49zm-55.9-85.71c18.62 0 33.78-15.15 33.78-33.78s-15.15-33.78-33.78-33.78-33.78 15.16-33.78 33.78 15.15 33.78 33.78 33.78zm0-55.55c12.01 0 21.78 9.77 21.78 21.78s-9.77 21.78-21.78 21.78-21.78-9.77-21.78-21.78 9.77-21.78 21.78-21.78zm331.46 64.28h-46.83c-24.53 0-44.49 19.96-44.49 44.49V491c0 3.31 2.69 6 6 6h123.81c3.31 0 6-2.69 6-6v-38.49c0-24.53-19.96-44.49-44.49-44.49zM465.93 485h-16.97v-34.48c0-3.31-2.69-6-6-6s-6 2.69-6 6V485h-53.87v-34.48c0-3.31-2.69-6-6-6s-6 2.69-6 6V485h-16.97v-32.49c0-17.92 14.58-32.49 32.49-32.49h46.83c17.92 0 32.49 14.58 32.49 32.49zm-89.69-119.49c0 18.62 15.15 33.78 33.78 33.78s33.78-15.15 33.78-33.78-15.15-33.78-33.78-33.78-33.78 15.16-33.78 33.78zm55.56 0c0 12.01-9.77 21.78-21.78 21.78s-21.78-9.77-21.78-21.78 9.77-21.78 21.78-21.78 21.78 9.78 21.78 21.78z" fill="#ffffff" opacity="1" data-original="#000000" class=""></path></g></svg>