<svg xmlns="http://www.w3.org/2000/svg" version="1.1" xmlns:xlink="http://www.w3.org/1999/xlink" width="512" height="512" x="0" y="0" viewBox="0 0 68 68" style="enable-background:new 0 0 512 512" xml:space="preserve" class=""><g><path d="M56.58 66H11.42a1.907 1.907 0 0 1-1.904-1.904V3.906c0-1.052.855-1.906 1.905-1.906h45.158c1.05 0 1.905.854 1.905 1.905v60.19c0 1.05-.855 1.905-1.905 1.905zm-45.064-2h44.968V4H11.516z" fill="#ffffff" opacity="1" data-original="#000000" class=""></path><path d="M51.337 58.937H16.663a1 1 0 1 1 0-2h34.674a1 1 0 1 1 0 2z" fill="#ffffff" opacity="1" data-original="#000000" class=""></path><path d="M37.212 58.938h-5.859a1 1 0 0 1-1-1V41.576c0-1.116.908-2.024 2.024-2.024h3.81c1.117 0 2.025.908 2.025 2.024v16.361a1 1 0 0 1-1 1zm-4.859-2h3.859V41.575l-3.835-.024a.024.024 0 0 0-.024.024v15.361zM26.018 58.938H20.16a1 1 0 0 1-1-1V47.43c0-1.117.908-2.025 2.025-2.025h3.81c1.116 0 2.024.908 2.024 2.025v10.508a1 1 0 0 1-1 1zm-4.859-2h3.86V47.43l-3.835-.025a.024.024 0 0 0-.025.025v9.508zM48.39 58.938h-5.859a1 1 0 0 1-1-1V37.186c0-1.117.908-2.025 2.025-2.025h3.81c1.116 0 2.024.908 2.024 2.025v20.752a1 1 0 0 1-1 1zm-4.858-2h3.858V37.186a.024.024 0 0 0-.024-.025h-3.81zM51.337 10.555H16.663a1 1 0 1 1 0-2h34.674a1 1 0 1 1 0 2zM51.337 17.624H16.663a1 1 0 1 1 0-2h34.674a1 1 0 1 1 0 2zM36.661 30.765a1 1 0 0 1-.405-1.914l6.117-2.708a1 1 0 1 1 .81 1.828l-6.118 2.708a.99.99 0 0 1-.404.086zM23.153 36.75a1 1 0 0 1-.405-1.914l8.166-3.614a1 1 0 1 1 .81 1.828l-8.166 3.614a.992.992 0 0 1-.405.086z" fill="#ffffff" opacity="1" data-original="#000000" class=""></path><path d="M20.621 41.126a3.931 3.931 0 0 1-3.927-3.927c0-2.166 1.762-3.928 3.927-3.928s3.927 1.762 3.927 3.928a3.931 3.931 0 0 1-3.927 3.927zm0-5.855a1.93 1.93 0 0 0-1.927 1.928c0 1.08.847 1.927 1.927 1.927 1.063 0 1.927-.864 1.927-1.927s-.864-1.928-1.927-1.928zM33.997 34.892a3.89 3.89 0 0 1-3.6-2.367 3.747 3.747 0 0 1-.327-1.56 3.931 3.931 0 0 1 3.927-3.927c1.54 0 2.943.91 3.576 2.316.23.48.35 1.029.35 1.61a3.931 3.931 0 0 1-3.926 3.928zm0-5.854a1.929 1.929 0 0 0-1.927 1.927c0 .272.054.526.158.754a1.905 1.905 0 0 0 1.77 1.173 1.929 1.929 0 0 0 1.926-1.927c0-.281-.056-.54-.165-.769a1.935 1.935 0 0 0-1.762-1.158zM45.46 29.487c-2.165 0-3.926-1.761-3.926-3.926s1.761-3.927 3.926-3.927c2.166 0 3.928 1.762 3.928 3.927s-1.762 3.926-3.928 3.926zm0-5.853a1.929 1.929 0 0 0-1.926 1.927c0 1.08.846 1.926 1.926 1.926 1.063 0 1.928-.864 1.928-1.926s-.865-1.927-1.928-1.927z" fill="#ffffff" opacity="1" data-original="#000000" class=""></path></g></svg>