<svg xmlns="http://www.w3.org/2000/svg" version="1.1" xmlns:xlink="http://www.w3.org/1999/xlink" width="512" height="512" x="0" y="0" viewBox="0 0 512 512" style="enable-background:new 0 0 512 512" xml:space="preserve"><g><path d="M191.7 143.7c0-3.9 3.1-7 7-7s7 3.1 7 7v2.7l13 2c6.6-10.6 22.1-10.6 28.7 0l13-2v-2.7c0-8.9 14-9.8 14 .6l10.9-1.7v-21.2H180.8v21.2l10.9 1.7zm14 16.9c0 4.1-3.1 7.2-7 7.2s-7-3.1-7-7v-2.4l-6-.9v32.3h94.9v-32.3l-6 .9v2.4c0 3.9-3.1 7-7 7s-7-3.1-7-7.2l-11.1 1.7c-3.7 12.2-19.1 16.2-28.2 7.1-2-2-3.4-4.4-4.3-7.1zm29.5-5.3c-2.7-2.7-6.9 1.4-4.2 4.2s6.9-1.5 4.2-4.2zm-29.9-47.9c0-6-.5-10.8 4.8-15.5 2.8-2.4 6.5-3.9 10.5-3.9h24.9c8.2 0 15.4 6.3 15.4 14.4v5h26.4c6.7 0 12 5.4 12 12v24.8c0 3.9-1.8 7.5-4.9 9.7v37.2c0 7-5.7 12.7-12.7 12.7h-97.5c-6.9 0-12.6-5.7-12.6-12.7V154c-3-2.2-4.9-5.8-4.9-9.7v-24.8c0-6.6 5.4-12 12-12h26.6zm41.7 0-.1-5.1c-.3-.3-.7-.4-1.3-.4h-24.9c-.9 0-1.4.4-1.4.4v5H247zm104 139.9-24.9 24.9c-.7.7-1 1.6-1 2.5 0 .9.3 1.8 1 2.5l39.5 39.5c1.4 1.4 3.7 1.4 5 0l24.9-24.9c.7-.7 1-1.6 1-2.5 0-.9-.4-1.8-1-2.5L356 247.3c-.7-.7-1.6-1-2.5-1-.9 0-1.8.3-2.5 1zm-29.5 9.7 14.7-14.7-21-21c-2.6-2.6-2.7-6.7-.4-9.5 5.8-8.2 10.5-17.4 13.7-27.2 11.6-36.1 1.6-75.3-24.5-101.5-18.1-18.1-43.2-29.3-70.8-29.3C177.8 53.9 133 98.7 133 154s44.8 100.1 100.1 100.1c21.2 0 41.4-6.6 58.4-18.8 2.8-2 6.6-1.6 9 .7zm25.6-23.5c2.1-.8 4.3-1.2 6.5-1.2 4.5 0 9 1.7 12.4 5.1l39.5 39.5c3.4 3.4 5.1 7.9 5.1 12.4s-1.7 9-5.1 12.4l-24.9 24.9c-6.8 6.8-18 6.8-24.8 0l-39.5-39.5c-3.4-3.4-5.1-7.9-5.1-12.4 0-2.3.5-4.7 1.4-6.9L294.7 250c-45 29-104.3 22.6-142.2-15.3-44.6-44.6-44.6-116.8 0-161.3C173.1 52.7 201.7 40 233.2 40c63 0 114.1 51.1 114.1 114.1 0 22-6.3 43.3-18.1 61.6zm-114-159.3c-44.1 0-79.8 35.7-79.8 79.8s35.7 79.8 79.8 79.8 79.8-35.7 79.8-79.8-35.7-79.8-79.8-79.8zm-66.3 13.5c36.6-36.6 96-36.6 132.6 0s36.6 96 0 132.6-96 36.6-132.6 0-36.6-96 0-132.6zm38.7 343.4c-3.9 0-7-3.1-7-7s3.1-7 7-7h100.9c3.9 0 7 3.1 7 7s-3.1 7-7 7zm0-60c-3.9 0-7-3.1-7-7s3.1-7 7-7h136.6c3.9 0 7 3.1 7 7s-3.1 7-7 7zm0-65.2c-3.9 0-7-3.1-7-7s3.1-7 7-7h82.9c3.9 0 7 3.1 7 7s-3.1 7-7 7zM134 285.4h36.5c3.9 0 7 3.1 7 7v33c0 3.9-3.1 7-7 7H134c-3.9 0-7-3.1-7-7v-33c0-3.9 3.2-7 7-7zm29.5 14H141v19h22.5zm42 33c-3.9 0-7-3.1-7-7s3.1-7 7-7h57.8c3.9 0 7 3.1 7 7s-3.1 7-7 7zM134 345.8h36.5c3.9 0 7 3.1 7 7v33c0 3.9-3.1 7-7 7H134c-3.9 0-7-3.1-7-7v-33c0-3.8 3.2-7 7-7zm29.5 14H141v19h22.5zM134 406.3h36.5c3.9 0 7 3.1 7 7v33c0 3.9-3.1 7-7 7H134c-3.9 0-7-3.1-7-7v-33c0-3.9 3.2-7 7-7zm29.5 14H141v19h22.5zm42 33c-3.9 0-7-3.1-7-7s3.1-7 7-7h116.6c3.9 0 7 3.1 7 7s-3.1 7-7 7zm0-60.5c-3.9 0-7-3.1-7-7s3.1-7 7-7h57.8c3.9 0 7 3.1 7 7s-3.1 7-7 7zm202.6 31h-50.3v50.3zm-57.3-14H418V28H94v456h249.9v-67.2c-.1-3.8 3.1-7 6.9-7zM87 14h338c3.9 0 7 3.1 7 7v395.8c0 1.9-.7 3.7-2 5l-74.6 74.5c-.6.7-2.9 1.7-4.6 1.7H87c-3.9 0-7-3.1-7-7V21c0-3.8 3.1-7 7-7z" fill="#ffffff" opacity="1" data-original="#000000"></path></g></svg>