<svg xmlns="http://www.w3.org/2000/svg" version="1.1" xmlns:xlink="http://www.w3.org/1999/xlink" width="512" height="512" x="0" y="0" viewBox="0 0 512 512" style="enable-background:new 0 0 512 512" xml:space="preserve" class=""><g><path fill-rule="evenodd" d="m410.54 156.73 27.26 40.25 27.28-40.25h-8.78c-1.59 0-3.1-.63-4.25-1.76a5.951 5.951 0 0 1-1.76-4.25c0-61.2-49.8-111-111.01-111-50.47 0-94.6 34.48-107.33 82.86 8.34 1.21 16.48 3.04 24.38 5.45 10.18-37.08 44.04-63.35 82.95-63.35 47.44 0 86.04 38.59 86.04 86.03 0 3.32-2.69 6-6 6h-8.78zM207.96 294.34c19.84 0 35.97-16.14 35.97-35.97s-16.13-35.97-35.97-35.97c-19.83 0-35.97 16.14-35.97 35.97s16.14 35.97 35.97 35.97zm33.83 94.75V360.2c0-3.31 2.68-6 6-6 3.31 0 6 2.69 6 6v24.07c9.69-4.59 18.59-10.57 26.44-17.7v-5.21c0-33.42-28.37-55.02-72.27-55.02s-72.27 21.6-72.27 55.02v33.19h26.44V360.2c0-3.31 2.69-6 6-6 3.32 0 6 2.69 6 6v34.34h33.83c11.81 0 23.19-1.92 33.83-5.45zm180.25 17.45a5.99 5.99 0 0 0 5.99-6v-11.89l52.02 35.23-52.02 35.23v-11.89c0-3.31-2.69-6-5.99-6h-152.1c20-8.07 38.09-19.92 53.36-34.67h98.74zm-59.9-119.51c0 85.02-69.16 154.18-154.18 154.18H26.75v-34.67h181.21c65.9 0 119.52-53.61 119.52-119.51s-53.62-119.51-119.52-119.51S88.45 221.14 88.45 287.03c0 2.11.05 4.23.16 6.31.17 3.19 2.8 5.69 5.99 5.69h11.86l-35.22 52.01-35.23-52.01h11.88a6.015 6.015 0 0 0 6-6.23c-.07-1.92-.11-3.86-.11-5.78 0-85.02 69.17-154.18 154.18-154.18 85.02.01 154.18 69.17 154.18 154.19z" clip-rule="evenodd" fill="#ffffff" opacity="1" data-original="#000000"></path></g></svg>