<svg xmlns="http://www.w3.org/2000/svg" version="1.1" xmlns:xlink="http://www.w3.org/1999/xlink" width="512" height="512" x="0" y="0" viewBox="0 0 512 512" style="enable-background:new 0 0 512 512" xml:space="preserve" class=""><g><path d="M130 177.5v30a7.5 7.5 0 0 0 7.5 7.5h70a7.5 7.5 0 0 0 7.5-7.5V145h22.5a37.5 37.5 0 0 0 37.5-38.55C274.43 86.35 257.34 70 236.88 70H215V7.5a7.5 7.5 0 0 0-7.5-7.5h-180A27.54 27.54 0 0 0 0 27.5v180a7.5 7.5 0 0 0 7.5 7.5h70a7.5 7.5 0 0 0 7.5-7.5v-30a22.5 22.5 0 0 1 45 0Zm-60 0V200H15V27.5A12.52 12.52 0 0 1 27.5 15H200v62.5a7.5 7.5 0 0 0 7.5 7.5h29.38c12.41 0 22.78 9.81 23.11 21.86A22.49 22.49 0 0 1 237.5 130h-30a7.5 7.5 0 0 0-7.5 7.5V200h-55v-22.5a37.5 37.5 0 0 0-75 0Z" fill="#04729f" opacity="1" data-original="#000000"></path><path d="M484.5 97h-180a7.5 7.5 0 0 0-7.5 7.5v70a7.5 7.5 0 0 0 7.5 7.5h29.38c12.41 0 22.78 9.81 23.11 21.86A22.49 22.49 0 0 1 334.5 227h-30a7.5 7.5 0 0 0-7.5 7.5V297h-55v-22.5a37.5 37.5 0 0 0-75 0V297h-62.5a7.5 7.5 0 0 0-7.5 7.5v180a27.54 27.54 0 0 0 27.5 27.5h360a27.54 27.54 0 0 0 27.5-27.5v-360A27.54 27.54 0 0 0 484.5 97Zm-150 145a37.5 37.5 0 0 0 37.5-38.55c-.56-20.1-17.65-36.45-38.11-36.45H312v-55h172.5a12.52 12.52 0 0 1 12.5 12.5V297h-62.5a7.5 7.5 0 0 0-7.5 7.5v30a22.5 22.5 0 0 1-45 0v-30a7.5 7.5 0 0 0-7.5-7.5H312v-55ZM297 497H124.5a12.52 12.52 0 0 1-12.5-12.5V312h62.5a7.5 7.5 0 0 0 7.5-7.5v-30a22.5 22.5 0 0 1 45 0v30a7.5 7.5 0 0 0 7.5 7.5H297v55h-22.5a37.5 37.5 0 0 0 0 75H297Zm200-12.5a12.52 12.52 0 0 1-12.5 12.5H312v-62.5a7.5 7.5 0 0 0-7.5-7.5h-30a22.5 22.5 0 0 1 0-45h30a7.5 7.5 0 0 0 7.5-7.5V312h55v22.5a37.5 37.5 0 0 0 75 0V312h55Z" fill="#04729f" opacity="1" data-original="#000000"></path></g></svg>