<svg xmlns="http://www.w3.org/2000/svg" version="1.1" xmlns:xlink="http://www.w3.org/1999/xlink" width="512" height="512" x="0" y="0" viewBox="0 0 512 512" style="enable-background:new 0 0 512 512" xml:space="preserve" class=""><g><path d="M120.755 389.27a51.1 51.1 0 1 0-51.1-51.1 51.157 51.157 0 0 0 51.1 51.1zm0-84.2a33.1 33.1 0 1 1-33.1 33.1 33.137 33.137 0 0 1 33.1-33.1zm72.185-12.992a63.395 63.395 0 1 0 63.395-63.394 63.467 63.467 0 0 0-63.395 63.394zm108.789 0a45.395 45.395 0 1 1-45.394-45.394 45.447 45.447 0 0 1 45.394 45.394zM480.322 447.7c-1.675-14.748-7.629-29.117-16.335-39.424-10.423-12.34-24.165-18.336-38.689-16.886a9 9 0 0 0-5 2.151c-9.839 8.52-19.148 12.465-28.468 12.108q-.36-.014-.721 0c-9.3.359-18.63-3.586-28.468-12.108a9 9 0 0 0-5-2.151 42.812 42.812 0 0 0-4.8-.2 77.614 77.614 0 0 0-5.123-6.835c-12.891-15.262-29.839-22.683-47.719-20.9a9.009 9.009 0 0 0-5 2.151c-13.056 11.307-26.034 16.765-38.608 16.284q-.36-.015-.72 0c-12.562.477-25.552-4.976-38.608-16.284a9.009 9.009 0 0 0-5-2.151c-17.877-1.783-34.827 5.636-47.719 20.9a77.286 77.286 0 0 0-5.119 6.829 42.709 42.709 0 0 0-4.884.208 9 9 0 0 0-5 2.152c-9.837 8.519-19.152 12.464-28.467 12.107q-.361-.014-.721 0c-9.312.367-18.63-3.586-28.468-12.108a9 9 0 0 0-5-2.151c-14.526-1.455-28.266 4.547-38.689 16.886-8.706 10.307-14.66 24.677-16.335 39.424-3.512 30.921 11.582 53.92 37.561 57.229a9.017 9.017 0 0 0 1.137.072h100.3a8.993 8.993 0 0 0 1.137-.072 45.887 45.887 0 0 0 8.87-2.028 56.3 56.3 0 0 0 9.42 2.028 9.005 9.005 0 0 0 1.137.072h129.6a9.021 9.021 0 0 0 1.138-.072 56.4 56.4 0 0 0 9.361-2.009 46.253 46.253 0 0 0 8.845 2.009 8.993 8.993 0 0 0 1.137.072h100.3a9.005 9.005 0 0 0 1.137-.072c25.998-3.312 41.093-26.311 37.581-57.231zm-430.759 2.03c2.316-20.393 15.071-40.421 32.782-40.55 12.409 10.023 25.218 14.87 38.183 14.466a51.918 51.918 0 0 0 26.8-6.787 100.145 100.145 0 0 0-3.468 17.031c-2.471 21.753 2.424 40.337 12.947 53.11H86.865v-29.924a9 9 0 0 0-18 0v29.538c-21.777-4.778-19.924-31.414-19.302-36.884zM320.242 487h-.078v-41.29a9 9 0 0 0-18 0V487H209.92v-41.29a9 9 0 0 0-18 0V487h-.078c-26.044-3.647-32.642-28.717-30.1-51.079 3.138-27.625 20.716-54.725 45.188-54.725.24 0 .482 0 .723.008 15.779 12.955 32.044 19.235 48.391 18.683 16.336.563 32.612-5.729 48.391-18.683a29.1 29.1 0 0 1 .723-.008c24.47 0 42.051 27.1 45.188 54.725 2.538 22.362-4.061 47.432-30.104 51.079zm122.893-.386v-29.538a9 9 0 0 0-18 0V487h-69.854c10.523-12.773 15.418-31.357 12.948-53.11a100.2 100.2 0 0 0-3.452-16.973 51.82 51.82 0 0 0 26.695 6.729c12.945.42 25.774-4.442 38.183-14.466 17.709.131 30.466 20.158 32.783 40.55.621 5.47 2.474 32.106-19.303 36.884zM391.7 287.07a51.1 51.1 0 1 0 51.1 51.1 51.157 51.157 0 0 0-51.1-51.1zm0 84.2a33.1 33.1 0 1 1 33.1-33.1 33.137 33.137 0 0 1-33.1 33.1zM122.788 192.392h14.891V221.5a9 9 0 0 0 15.813 5.881l53.415-61.881h6.393v29.112a9 9 0 0 0 15.364 6.364l35.471-35.476H328.8l53.416 61.881a9 9 0 0 0 15.813-5.881v-29.108h14.89a27.8 27.8 0 0 0 27.773-27.772V61.659a27.8 27.8 0 0 0-27.773-27.771h-32.04A27.8 27.8 0 0 0 353.129 7H198.4a27.8 27.8 0 0 0-27.749 26.888h-47.863a27.8 27.8 0 0 0-27.772 27.771V164.62a27.8 27.8 0 0 0 27.772 27.772zm299.9-130.733V164.62a9.784 9.784 0 0 1-9.773 9.772h-23.89a9 9 0 0 0-9 9v13.913l-27.451-31.8h.556a27.8 27.8 0 0 0 27.77-27.773V51.888h32.012a9.783 9.783 0 0 1 9.775 9.771zM188.632 34.772A9.783 9.783 0 0 1 198.4 25h154.729a9.784 9.784 0 0 1 9.773 9.772v102.96a9.784 9.784 0 0 1-9.773 9.772h-92.722a9 9 0 0 0-6.364 2.636L231.3 172.889V156.5a9 9 0 0 0-9-9h-23.9a9.783 9.783 0 0 1-9.772-9.772zm-75.616 26.887a9.783 9.783 0 0 1 9.772-9.771h47.844v85.844a27.794 27.794 0 0 0 15.134 24.717l-30.087 34.856v-13.913a9 9 0 0 0-9-9h-23.891a9.783 9.783 0 0 1-9.772-9.772z" fill="#ffffff" opacity="1" data-original="#000000" class=""></path></g></svg>