<svg xmlns="http://www.w3.org/2000/svg" version="1.1" xmlns:xlink="http://www.w3.org/1999/xlink" width="512" height="512" x="0" y="0" viewBox="0 0 601.409 601.409" style="enable-background:new 0 0 512 512" xml:space="preserve"><g><path d="M562.609 261.904c21.399 0 38.801-17.402 38.801-38.801s-17.402-38.801-38.801-38.801c-10.757 0-20.496 4.414-27.529 11.504l-25.967-15.142c3.191-7.877 4.996-16.461 4.996-25.463 0-15.229-5.102-29.246-13.6-40.585l42.506-42.506c5.781 3.405 12.416 5.49 19.594 5.49 21.399 0 38.801-17.402 38.801-38.801S584.007 0 562.609 0s-38.801 17.402-38.801 38.801c0 7.178 2.086 13.813 5.5 19.585l-42.506 42.506c-11.349-8.488-25.366-13.59-40.595-13.59-5.83 0-11.456.815-16.859 2.202l-8.294-19.914c9.322-7.081 15.452-18.188 15.452-30.788.001-21.4-17.401-38.802-38.8-38.802s-38.801 17.402-38.801 38.801 17.402 38.801 38.801 38.801c1.862 0 3.638-.291 5.432-.553l8.303 19.934c-19.808 11.873-33.136 33.495-33.136 58.22 0 15.229 5.102 29.246 13.6 40.585l-29.857 29.857c-16.733-13.697-38.093-21.942-61.344-21.942-24.541 0-46.92 9.235-64.021 24.318l-43.127-40.042c6.392-9.341 10.146-20.623 10.146-32.777 0-14.851-5.636-28.383-14.832-38.674l24.755-30.943c2.988 1.038 6.14 1.717 9.477 1.717 16.044 0 29.1-13.056 29.1-29.1s-13.056-29.1-29.1-29.1-29.1 13.056-29.1 29.1c0 5.626 1.678 10.835 4.452 15.287l-24.697 30.866c-8.381-4.666-18.003-7.353-28.257-7.353-20.031 0-37.734 10.175-48.21 25.628l-20.37-9.254c.388-2.173.679-4.384.679-6.674 0-21.399-17.402-38.801-38.801-38.801S0 85.303 0 106.702s17.402 38.801 38.801 38.801c12.154 0 22.892-5.733 30.012-14.502l20.496 9.312c-1.271 4.763-2.008 9.739-2.008 14.89 0 32.098 26.103 58.201 58.201 58.201 12.95 0 24.881-4.307 34.562-11.485l43.428 40.314c-12.358 16.287-19.788 36.502-19.788 58.472 0 40.634 25.152 75.467 60.684 89.882l-19.381 66.485c-3.967-.728-8.032-1.164-12.203-1.164-34.135 0-62.391 25.356-67.125 58.201h-41.361c-4.016-11.262-14.686-19.4-27.316-19.4-2.163 0-4.268.281-6.295.728L71.19 464.203c3.948-4.966 6.412-11.165 6.412-17.994 0-7.004-2.58-13.338-6.713-18.372l9.05-9.05 36.463 14.589v22.533h19.4v-22.533l36.463-14.589 14.88 14.88 13.716-13.716-16.558-16.558v-54.185h-19.4v51.634l-38.801 15.52-38.801-15.52v-45.067l48.501-19.4V265.04l-58.201-23.28-50.363 20.147H0v19.4h19.4v38.801H0v19.4h27.238l40.663 16.267v47.618l-14.24 14.24c-1.678-.301-3.395-.524-5.16-.524-16.044 0-29.1 13.056-29.1 29.1s13.056 29.1 29.1 29.1c2.163 0 4.258-.281 6.295-.728l19.517 31.234c-3.948 4.966-6.412 11.165-6.412 17.994 0 2.784.514 5.422 1.251 7.974l-23.406 16.723c-4.724-3.317-10.447-5.296-16.645-5.296-16.044 0-29.1 13.056-29.1 29.1s13.056 29.1 29.1 29.1 29.1-13.056 29.1-29.1c0-2.784-.514-5.422-1.251-7.974l23.406-16.723c4.724 3.317 10.447 5.296 16.645 5.296 12.63 0 23.3-8.138 27.316-19.4h41.361c4.734 32.845 32.99 58.201 67.125 58.201s62.391-25.356 67.125-58.201h79.357c4.511 22.107 24.095 38.801 47.521 38.801 16.093 0 30.274-7.964 39.101-20.07l38.742 17.606c-.068.825-.242 1.62-.242 2.464 0 16.044 13.056 29.1 29.1 29.1s29.1-13.056 29.1-29.1-13.056-29.1-29.1-29.1c-8.216 0-15.608 3.453-20.904 8.944l-38.607-17.548c.795-3.482 1.309-7.071 1.309-10.796 0-5.839-1.203-11.359-3.094-16.548l53.865-33.145c6.974 6.713 16.403 10.893 26.831 10.893 21.399 0 38.801-17.402 38.801-38.801s-17.402-38.801-38.801-38.801-38.801 17.402-38.801 38.801c0 3.967.776 7.721 1.882 11.33l-53.923 33.184c-8.856-9.429-21.34-15.414-35.26-15.414-23.416 0-43.01 16.694-47.521 38.801h-79.357c-3.211-22.252-17.198-41.022-36.531-50.838l19.614-67.261c5.743 1.067 11.64 1.698 17.693 1.698 53.487 0 97.001-43.515 97.001-97.001 0-23.251-8.245-44.611-21.942-61.344l29.857-29.857c11.34 8.497 25.356 13.6 40.585 13.6 21.486 0 40.644-10.069 53.089-25.696l26.122 15.239c-.941 3.347-1.61 6.81-1.61 10.457.003 21.395 17.405 38.797 38.804 38.797zM378.306 38.801c0-10.699 8.701-19.4 19.4-19.4s19.4 8.701 19.4 19.4-8.701 19.4-19.4 19.4-19.4-8.701-19.4-19.4zM38.801 126.102c-10.699 0-19.4-8.701-19.4-19.4s8.701-19.4 19.4-19.4 19.4 8.701 19.4 19.4-8.701 19.4-19.4 19.4zm494.707 436.507c5.354 0 9.7 4.346 9.7 9.7s-4.346 9.7-9.7 9.7-9.7-4.346-9.7-9.7c0-5.355 4.346-9.7 9.7-9.7zm19.401-135.802c10.699 0 19.4 8.701 19.4 19.4s-8.701 19.4-19.4 19.4-19.4-8.701-19.4-19.4 8.7-19.4 19.4-19.4zm-126.102 67.901c16.044 0 29.1 13.056 29.1 29.1s-13.056 29.1-29.1 29.1-29.1-13.056-29.1-29.1c-.001-16.044 13.056-29.1 29.1-29.1zM38.801 278.171l38.801-15.52 38.801 15.52v45.067l-38.801 15.52-38.801-15.52zm0 168.036c0-5.354 4.346-9.7 9.7-9.7s9.7 4.346 9.7 9.7-4.346 9.7-9.7 9.7-9.7-4.346-9.7-9.7zM29.1 582.009c-5.354 0-9.7-4.346-9.7-9.7s4.346-9.7 9.7-9.7 9.7 4.346 9.7 9.7c.001 5.354-4.345 9.7-9.7 9.7zm67.901-48.501c-5.354 0-9.7-4.346-9.7-9.7s4.346-9.7 9.7-9.7 9.7 4.346 9.7 9.7c.001 5.355-4.345 9.7-9.7 9.7zm184.303-9.7c0 26.743-21.757 48.501-48.501 48.501s-48.501-21.757-48.501-48.501c0-26.743 21.757-48.501 48.501-48.501s48.501 21.758 48.501 48.501zM562.609 19.4c10.699 0 19.4 8.701 19.4 19.4s-8.701 19.4-19.4 19.4-19.4-8.701-19.4-19.4 8.7-19.4 19.4-19.4zM223.103 48.501c5.354 0 9.7 4.346 9.7 9.7s-4.346 9.7-9.7 9.7-9.7-4.346-9.7-9.7 4.346-9.7 9.7-9.7zm-77.601 145.502c-21.399 0-38.801-17.402-38.801-38.801s17.402-38.801 38.801-38.801 38.801 17.402 38.801 38.801-17.402 38.801-38.801 38.801zm155.203 184.303c-42.787 0-77.601-34.814-77.601-77.601s34.814-77.601 77.601-77.601 77.601 34.814 77.601 77.601-34.814 77.601-77.601 77.601zm145.502-174.603c-26.743 0-48.501-21.757-48.501-48.501s21.757-48.501 48.501-48.501 48.501 21.757 48.501 48.501-21.758 48.501-48.501 48.501zm116.402 0c10.699 0 19.4 8.701 19.4 19.4s-8.701 19.4-19.4 19.4-19.4-8.701-19.4-19.4c-.001-10.699 8.7-19.4 19.4-19.4z" fill="#04729f" opacity="1" data-original="#000000"></path><path d="M417.106 291.004h116.402v19.4H417.106zM514.108 329.805h19.4v19.4h-19.4zM417.106 329.805h77.601v19.4h-77.601zM417.106 368.606h116.402v19.4H417.106z" fill="#04729f" opacity="1" data-original="#000000"></path></g></svg>