<svg xmlns="http://www.w3.org/2000/svg" version="1.1" xmlns:xlink="http://www.w3.org/1999/xlink" width="512" height="512" x="0" y="0" viewBox="0 0 1707 1707" style="enable-background:new 0 0 512 512" xml:space="preserve" fill-rule="evenodd" class=""><g><path d="M855 240c-66 0-120-54-120-120S789 0 855 0s120 54 120 120-54 120-120 120zm0-200c-44 0-80 36-80 80s36 80 80 80 80-36 80-80-36-80-80-80z" fill="#04729f" opacity="1" data-original="#000000" class=""></path><path d="M1030 402H679c-11 0-20-9-20-20v-78c0-69 54-128 123-134 11 0 21 8 22 19s-8 20-19 21c-48 4-86 45-86 94v58h311v-58c0-48-38-89-86-94-11-1-19-10-18-21s10-20 22-18c68 6 122 64 122 133v78c0 11-9 20-20 20z" fill="#04729f" opacity="1" data-original="#000000" class=""></path><path d="M761 402c-11 0-20-9-20-20v-60c0-11 9-20 20-20s20 9 20 20v60c0 11-9 20-20 20zM948 402c-11 0-20-9-20-20v-60c0-11 9-20 20-20s20 9 20 20v60c0 11-9 20-20 20zM308 743c-3 0-7-1-10-3-7-4-11-12-10-21l8-43c-78-25-132-88-132-159 0-94 91-170 203-170s203 76 203 170c0 89-82 162-188 169l-61 52c-4 3-8 5-13 5zm59-356c-90 0-163 58-163 130 0 58 49 109 120 125 10 2 17 12 15 23l-1 6 23-20c4-3 8-5 13-5 87-3 155-60 155-129 0-72-72-130-162-130zM306 1003c-66 0-120-54-120-120s54-120 120-120 120 54 120 120-54 120-120 120zm0-200c-44 0-80 36-80 80s36 80 80 80 80-36 80-80-36-80-80-80z" fill="#04729f" opacity="1" data-original="#000000" class=""></path><path d="M481 1165H130c-11 0-20-9-20-20v-78c0-69 54-128 123-134 11-1 21 8 22 19 0 11-8 20-19 21-48 4-86 45-86 94v58h311v-58c0-48-38-89-86-94-11-1-19-10-18-21s10-20 22-19c68 6 122 65 122 134v78c0 11-9 20-20 20z" fill="#04729f" opacity="1" data-original="#000000" class=""></path><path d="M212 1165c-11 0-20-9-20-20v-60c0-11 9-20 20-20s20 9 20 20v60c0 11-9 20-20 20zM399 1165c-11 0-20-9-20-20v-60c0-11 9-20 20-20s20 9 20 20v60c0 11-9 20-20 20zM1336 1157c-4 0-7-1-10-3-8-4-12-13-10-21l8-44c-79-24-132-87-132-159 0-93 91-169 202-169 112 0 203 76 203 169 0 90-82 163-187 169l-61 53c-4 3-9 5-13 5zm58-356c-89 0-162 58-162 129 0 58 49 110 119 125 11 3 18 13 16 24l-1 6 23-20c3-3 8-5 12-5 88-3 156-60 156-130 0-71-73-129-163-129zM1395 1417c-66 0-120-54-120-120s54-120 120-120 120 54 120 120-54 120-120 120zm0-200c-44 0-80 36-80 80s36 80 80 80 80-36 80-80-36-80-80-80z" fill="#04729f" opacity="1" data-original="#000000" class=""></path><path d="M1570 1578h-351c-11 0-20-9-20-20v-77c0-70 54-128 123-134 11-1 21 7 22 19 1 11-8 20-19 21-48 4-86 45-86 94v57h311v-57c0-49-38-90-86-94-11-1-19-11-18-22s11-19 22-18c68 6 122 65 122 134v77c0 11-9 20-20 20z" fill="#04729f" opacity="1" data-original="#000000" class=""></path><path d="M1301 1578c-11 0-20-9-20-20v-60c0-11 9-20 20-20s20 9 20 20v60c0 11-9 20-20 20zM1488 1578c-11 0-20-9-20-20v-60c0-11 9-20 20-20s20 9 20 20v60c0 11-9 20-20 20zM854 1707c-11 0-20-9-20-20V514c0-11 9-20 20-20s20 9 20 20v1173c0 11-9 20-20 20z" fill="#04729f" opacity="1" data-original="#000000" class=""></path><path d="M952 632c-5 0-10-2-14-6l-84-84-83 84c-8 8-21 8-28 0-8-8-8-21 0-28l97-98c8-8 21-8 28 0l98 98c8 7 8 20 0 28-4 4-9 6-14 6zM854 1707c-5 0-10-2-14-6l-97-98c-8-8-8-20 0-28 7-8 20-8 28 0l83 83 84-83c8-8 20-8 28 0s8 20 0 28l-98 98c-3 4-9 6-14 6zM854 1120c-11 0-20-9-20-20v-84c0-35-28-64-64-64H613c-11 0-20-9-20-20s9-20 20-20h157c58 0 104 47 104 104v84c0 11-9 20-20 20z" fill="#04729f" opacity="1" data-original="#000000" class=""></path><path d="M660 1000c-5 0-10-2-14-6l-48-48c-7-7-7-20 0-28l48-48c8-8 21-8 29 0 7 8 7 21 0 29l-34 33 34 34c7 8 7 20 0 28-4 4-9 6-15 6zM854 1424c-11 0-20-9-20-20v-84c0-57 47-104 104-104h158c11 0 20 9 20 20s-9 20-20 20H938c-35 0-64 29-64 64v84c0 12-9 20-20 20z" fill="#04729f" opacity="1" data-original="#000000" class=""></path><path d="M1048 1304c-5 0-10-2-14-6-8-8-8-20 0-28l34-34-34-33c-8-8-8-21 0-29s21-8 28 0l48 48c8 8 8 21 0 28l-48 48c-4 4-9 6-14 6z" fill="#04729f" opacity="1" data-original="#000000" class=""></path></g></svg>