<svg width="80" height="80" viewBox="0 0 80 80" fill="none" xmlns="http://www.w3.org/2000/svg">
<rect width="80" height="80" rx="20" fill="#04729F"/>
<path d="M29.5227 19.2727H34.4545V48.3864C34.4545 50.9848 33.9773 53.1922 33.0227 55.0085C32.0682 56.8248 30.7225 58.2036 28.9858 59.1449C27.2491 60.0862 25.2008 60.5568 22.8409 60.5568C20.6136 60.5568 18.6316 60.1525 16.8949 59.3438C15.1581 58.5218 13.7926 57.3551 12.7983 55.8438C11.804 54.3324 11.3068 52.536 11.3068 50.4545H16.1591C16.1591 51.608 16.4441 52.6155 17.0142 53.4773C17.5975 54.3258 18.393 54.9886 19.4006 55.4659C20.4081 55.9432 21.5549 56.1818 22.8409 56.1818C24.2595 56.1818 25.4659 55.8835 26.4602 55.2869C27.4545 54.6903 28.2102 53.8153 28.7273 52.6619C29.2576 51.4953 29.5227 50.0701 29.5227 48.3864V19.2727Z" fill="white"/>
<path d="M36.6211 19.1875H49.8008C52.7904 19.1875 55.3151 19.6432 57.375 20.5547C59.4531 21.4661 61.0299 22.8151 62.1055 24.6016C63.1992 26.3698 63.7461 28.5482 63.7461 31.1367C63.7461 32.9596 63.3724 34.6276 62.625 36.1406C61.8958 37.6354 60.8385 38.9115 59.4531 39.9688C58.0859 41.0078 56.4453 41.7826 54.5312 42.293L53.0547 42.8672H40.668L40.6133 38.5742H49.9648C51.8607 38.5742 53.4375 38.2461 54.6953 37.5898C55.9531 36.9154 56.901 36.013 57.5391 34.8828C58.1771 33.7526 58.4961 32.5039 58.4961 31.1367C58.4961 29.6055 58.1953 28.2656 57.5938 27.1172C56.9922 25.9688 56.0443 25.0846 54.75 24.4648C53.474 23.8268 51.8242 23.5078 49.8008 23.5078H41.8984V59H36.6211V19.1875ZM59.8906 59L50.2109 40.9531L55.707 40.9258L65.5234 58.6719V59H59.8906Z" fill="white"/>
</svg>
