<svg width="258" height="80" viewBox="0 0 258 80" fill="none" xmlns="http://www.w3.org/2000/svg">
<rect width="80" height="80" rx="20" fill="#04729F"/>
<path d="M29.5227 19.2727H34.4545V48.3864C34.4545 50.9848 33.9773 53.1922 33.0227 55.0085C32.0682 56.8248 30.7225 58.2036 28.9858 59.1449C27.2491 60.0862 25.2008 60.5568 22.8409 60.5568C20.6136 60.5568 18.6316 60.1525 16.8949 59.3438C15.1581 58.5218 13.7926 57.3551 12.7983 55.8438C11.804 54.3324 11.3068 52.536 11.3068 50.4545H16.1591C16.1591 51.608 16.4441 52.6155 17.0142 53.4773C17.5975 54.3258 18.393 54.9886 19.4006 55.4659C20.4081 55.9432 21.5549 56.1818 22.8409 56.1818C24.2595 56.1818 25.4659 55.8835 26.4602 55.2869C27.4545 54.6903 28.2102 53.8153 28.7273 52.6619C29.2576 51.4953 29.5227 50.0701 29.5227 48.3864V19.2727Z" fill="white"/>
<path d="M36.6211 19.1875H49.8008C52.7904 19.1875 55.3151 19.6432 57.375 20.5547C59.4531 21.4661 61.0299 22.8151 62.1055 24.6016C63.1992 26.3698 63.7461 28.5482 63.7461 31.1367C63.7461 32.9596 63.3724 34.6276 62.625 36.1406C61.8958 37.6354 60.8385 38.9115 59.4531 39.9688C58.0859 41.0078 56.4453 41.7826 54.5312 42.293L53.0547 42.8672H40.668L40.6133 38.5742H49.9648C51.8607 38.5742 53.4375 38.2461 54.6953 37.5898C55.9531 36.9154 56.901 36.013 57.5391 34.8828C58.1771 33.7526 58.4961 32.5039 58.4961 31.1367C58.4961 29.6055 58.1953 28.2656 57.5938 27.1172C56.9922 25.9688 56.0443 25.0846 54.75 24.4648C53.474 23.8268 51.8242 23.5078 49.8008 23.5078H41.8984V59H36.6211V19.1875ZM59.8906 59L50.2109 40.9531L55.707 40.9258L65.5234 58.6719V59H59.8906Z" fill="white"/>
<path d="M96.7188 17.25V40H92.0312V17.25H96.7188ZM105.781 26.9688V30.625H95.4375V26.9688H105.781ZM106.875 17.25V20.9219H95.4375V17.25H106.875ZM113.406 26.7812V40H108.906V23.0938H113.141L113.406 26.7812ZM118.5 22.9844L118.422 27.1562C118.203 27.125 117.938 27.099 117.625 27.0781C117.323 27.0469 117.047 27.0312 116.797 27.0312C116.161 27.0312 115.609 27.1146 115.141 27.2812C114.682 27.4375 114.297 27.6719 113.984 27.9844C113.682 28.2969 113.453 28.6771 113.297 29.125C113.151 29.5729 113.068 30.0833 113.047 30.6562L112.141 30.375C112.141 29.2812 112.25 28.276 112.469 27.3594C112.688 26.4323 113.005 25.625 113.422 24.9375C113.849 24.25 114.37 23.7188 114.984 23.3438C115.599 22.9688 116.302 22.7812 117.094 22.7812C117.344 22.7812 117.599 22.8021 117.859 22.8438C118.12 22.875 118.333 22.9219 118.5 22.9844ZM119.438 31.7188V31.3906C119.438 30.151 119.615 29.0104 119.969 27.9688C120.323 26.9167 120.839 26.0052 121.516 25.2344C122.193 24.4635 123.026 23.8646 124.016 23.4375C125.005 23 126.141 22.7812 127.422 22.7812C128.703 22.7812 129.844 23 130.844 23.4375C131.844 23.8646 132.682 24.4635 133.359 25.2344C134.047 26.0052 134.568 26.9167 134.922 27.9688C135.276 29.0104 135.453 30.151 135.453 31.3906V31.7188C135.453 32.9479 135.276 34.0885 134.922 35.1406C134.568 36.1823 134.047 37.0938 133.359 37.875C132.682 38.6458 131.849 39.2448 130.859 39.6719C129.87 40.099 128.734 40.3125 127.453 40.3125C126.172 40.3125 125.031 40.099 124.031 39.6719C123.042 39.2448 122.203 38.6458 121.516 37.875C120.839 37.0938 120.323 36.1823 119.969 35.1406C119.615 34.0885 119.438 32.9479 119.438 31.7188ZM123.938 31.3906V31.7188C123.938 32.4271 124 33.0885 124.125 33.7031C124.25 34.3177 124.448 34.8594 124.719 35.3281C125 35.7865 125.365 36.1458 125.812 36.4062C126.26 36.6667 126.807 36.7969 127.453 36.7969C128.078 36.7969 128.615 36.6667 129.062 36.4062C129.51 36.1458 129.87 35.7865 130.141 35.3281C130.411 34.8594 130.609 34.3177 130.734 33.7031C130.87 33.0885 130.938 32.4271 130.938 31.7188V31.3906C130.938 30.7031 130.87 30.0573 130.734 29.4531C130.609 28.8385 130.406 28.2969 130.125 27.8281C129.854 27.349 129.495 26.974 129.047 26.7031C128.599 26.4323 128.057 26.2969 127.422 26.2969C126.786 26.2969 126.245 26.4323 125.797 26.7031C125.359 26.974 125 27.349 124.719 27.8281C124.448 28.2969 124.25 28.8385 124.125 29.4531C124 30.0573 123.938 30.7031 123.938 31.3906ZM142.625 26.7031V40H138.125V23.0938H142.344L142.625 26.7031ZM141.969 30.9531H140.75C140.75 29.7031 140.911 28.5781 141.234 27.5781C141.557 26.5677 142.01 25.7083 142.594 25C143.177 24.2812 143.87 23.7344 144.672 23.3594C145.484 22.974 146.391 22.7812 147.391 22.7812C148.182 22.7812 148.906 22.8958 149.562 23.125C150.219 23.3542 150.781 23.7188 151.25 24.2188C151.729 24.7188 152.094 25.3802 152.344 26.2031C152.604 27.026 152.734 28.0312 152.734 29.2188V40H148.203V29.2031C148.203 28.4531 148.099 27.8698 147.891 27.4531C147.682 27.0365 147.375 26.7448 146.969 26.5781C146.573 26.401 146.083 26.3125 145.5 26.3125C144.896 26.3125 144.37 26.4323 143.922 26.6719C143.484 26.9115 143.12 27.2448 142.828 27.6719C142.547 28.0885 142.333 28.5781 142.188 29.1406C142.042 29.7031 141.969 30.3073 141.969 30.9531ZM164.438 23.0938V26.2812H154.594V23.0938H164.438ZM157.031 18.9219H161.531V34.9062C161.531 35.3958 161.594 35.7708 161.719 36.0312C161.854 36.2917 162.052 36.474 162.312 36.5781C162.573 36.6719 162.901 36.7188 163.297 36.7188C163.578 36.7188 163.828 36.7083 164.047 36.6875C164.276 36.6562 164.469 36.625 164.625 36.5938L164.641 39.9062C164.255 40.0312 163.839 40.1302 163.391 40.2031C162.943 40.276 162.448 40.3125 161.906 40.3125C160.917 40.3125 160.052 40.151 159.312 39.8281C158.583 39.4948 158.021 38.9635 157.625 38.2344C157.229 37.5052 157.031 36.5469 157.031 35.3594V18.9219ZM174.781 40.3125C173.469 40.3125 172.292 40.1042 171.25 39.6875C170.208 39.2604 169.323 38.6719 168.594 37.9219C167.875 37.1719 167.323 36.3021 166.938 35.3125C166.552 34.3125 166.359 33.25 166.359 32.125V31.5C166.359 30.2188 166.542 29.0469 166.906 27.9844C167.271 26.9219 167.792 26 168.469 25.2188C169.156 24.4375 169.99 23.8385 170.969 23.4219C171.948 22.9948 173.052 22.7812 174.281 22.7812C175.479 22.7812 176.542 22.9792 177.469 23.375C178.396 23.7708 179.172 24.3333 179.797 25.0625C180.432 25.7917 180.911 26.6667 181.234 27.6875C181.557 28.6979 181.719 29.8229 181.719 31.0625V32.9375H168.281V29.9375H177.297V29.5938C177.297 28.9688 177.182 28.4115 176.953 27.9219C176.734 27.4219 176.401 27.026 175.953 26.7344C175.505 26.4427 174.932 26.2969 174.234 26.2969C173.641 26.2969 173.13 26.4271 172.703 26.6875C172.276 26.9479 171.927 27.3125 171.656 27.7812C171.396 28.25 171.198 28.8021 171.062 29.4375C170.938 30.0625 170.875 30.75 170.875 31.5V32.125C170.875 32.8021 170.969 33.4271 171.156 34C171.354 34.5729 171.63 35.0677 171.984 35.4844C172.349 35.901 172.786 36.224 173.297 36.4531C173.818 36.6823 174.406 36.7969 175.062 36.7969C175.875 36.7969 176.63 36.6406 177.328 36.3281C178.036 36.0052 178.646 35.5208 179.156 34.875L181.344 37.25C180.99 37.7604 180.505 38.25 179.891 38.7188C179.286 39.1875 178.557 39.5729 177.703 39.875C176.849 40.1667 175.875 40.3125 174.781 40.3125ZM188.688 26.7031V40H184.188V23.0938H188.406L188.688 26.7031ZM188.031 30.9531H186.812C186.812 29.7031 186.974 28.5781 187.297 27.5781C187.62 26.5677 188.073 25.7083 188.656 25C189.24 24.2812 189.932 23.7344 190.734 23.3594C191.547 22.974 192.453 22.7812 193.453 22.7812C194.245 22.7812 194.969 22.8958 195.625 23.125C196.281 23.3542 196.844 23.7188 197.312 24.2188C197.792 24.7188 198.156 25.3802 198.406 26.2031C198.667 27.026 198.797 28.0312 198.797 29.2188V40H194.266V29.2031C194.266 28.4531 194.161 27.8698 193.953 27.4531C193.745 27.0365 193.438 26.7448 193.031 26.5781C192.635 26.401 192.146 26.3125 191.562 26.3125C190.958 26.3125 190.432 26.4323 189.984 26.6719C189.547 26.9115 189.182 27.2448 188.891 27.6719C188.609 28.0885 188.396 28.5781 188.25 29.1406C188.104 29.7031 188.031 30.3073 188.031 30.9531ZM212.203 36.3125V16H216.734V40H212.656L212.203 36.3125ZM201.516 31.75V31.4219C201.516 30.1302 201.661 28.9583 201.953 27.9062C202.245 26.8438 202.672 25.9323 203.234 25.1719C203.797 24.4115 204.49 23.8229 205.312 23.4062C206.135 22.9896 207.073 22.7812 208.125 22.7812C209.115 22.7812 209.979 22.9896 210.719 23.4062C211.469 23.8229 212.104 24.4167 212.625 25.1875C213.156 25.9479 213.583 26.849 213.906 27.8906C214.229 28.9219 214.464 30.0521 214.609 31.2812V32C214.464 33.1771 214.229 34.2708 213.906 35.2812C213.583 36.2917 213.156 37.1771 212.625 37.9375C212.104 38.6875 211.469 39.2708 210.719 39.6875C209.969 40.1042 209.094 40.3125 208.094 40.3125C207.042 40.3125 206.104 40.099 205.281 39.6719C204.469 39.2448 203.781 38.6458 203.219 37.875C202.667 37.1042 202.245 36.1979 201.953 35.1562C201.661 34.1146 201.516 32.9792 201.516 31.75ZM206.016 31.4219V31.75C206.016 32.4479 206.068 33.099 206.172 33.7031C206.286 34.3073 206.469 34.8438 206.719 35.3125C206.979 35.7708 207.312 36.1302 207.719 36.3906C208.135 36.6406 208.641 36.7656 209.234 36.7656C210.005 36.7656 210.641 36.5938 211.141 36.25C211.641 35.8958 212.021 35.4115 212.281 34.7969C212.552 34.1823 212.708 33.474 212.75 32.6719V30.625C212.719 29.9688 212.625 29.3802 212.469 28.8594C212.323 28.3281 212.104 27.875 211.812 27.5C211.531 27.125 211.177 26.8333 210.75 26.625C210.333 26.4167 209.839 26.3125 209.266 26.3125C208.682 26.3125 208.182 26.4479 207.766 26.7188C207.349 26.9792 207.01 27.3385 206.75 27.7969C206.5 28.2552 206.312 28.7969 206.188 29.4219C206.073 30.0365 206.016 30.7031 206.016 31.4219Z" fill="#626262"/>
<path d="M122.016 66H117.062L117.094 62.3438H122.016C123.245 62.3438 124.281 62.0677 125.125 61.5156C125.969 60.9531 126.604 60.1354 127.031 59.0625C127.469 57.9896 127.688 56.6927 127.688 55.1719V54.0625C127.688 52.8958 127.562 51.8698 127.312 50.9844C127.073 50.099 126.714 49.3542 126.234 48.75C125.755 48.1458 125.167 47.6927 124.469 47.3906C123.771 47.0781 122.969 46.9219 122.062 46.9219H116.969V43.25H122.062C123.583 43.25 124.974 43.5104 126.234 44.0312C127.505 44.5417 128.604 45.276 129.531 46.2344C130.458 47.1927 131.172 48.3385 131.672 49.6719C132.182 50.9948 132.438 52.4688 132.438 54.0938V55.1719C132.438 56.7865 132.182 58.2604 131.672 59.5938C131.172 60.9271 130.458 62.0729 129.531 63.0312C128.615 63.9792 127.516 64.7135 126.234 65.2344C124.964 65.7448 123.557 66 122.016 66ZM119.719 43.25V66H115.031V43.25H119.719ZM143.344 66.3125C142.031 66.3125 140.854 66.1042 139.812 65.6875C138.771 65.2604 137.885 64.6719 137.156 63.9219C136.438 63.1719 135.885 62.3021 135.5 61.3125C135.115 60.3125 134.922 59.25 134.922 58.125V57.5C134.922 56.2188 135.104 55.0469 135.469 53.9844C135.833 52.9219 136.354 52 137.031 51.2188C137.719 50.4375 138.552 49.8385 139.531 49.4219C140.51 48.9948 141.615 48.7812 142.844 48.7812C144.042 48.7812 145.104 48.9792 146.031 49.375C146.958 49.7708 147.734 50.3333 148.359 51.0625C148.995 51.7917 149.474 52.6667 149.797 53.6875C150.12 54.6979 150.281 55.8229 150.281 57.0625V58.9375H136.844V55.9375H145.859V55.5938C145.859 54.9688 145.745 54.4115 145.516 53.9219C145.297 53.4219 144.964 53.026 144.516 52.7344C144.068 52.4427 143.495 52.2969 142.797 52.2969C142.203 52.2969 141.693 52.4271 141.266 52.6875C140.839 52.9479 140.49 53.3125 140.219 53.7812C139.958 54.25 139.76 54.8021 139.625 55.4375C139.5 56.0625 139.438 56.75 139.438 57.5V58.125C139.438 58.8021 139.531 59.4271 139.719 60C139.917 60.5729 140.193 61.0677 140.547 61.4844C140.911 61.901 141.349 62.224 141.859 62.4531C142.38 62.6823 142.969 62.7969 143.625 62.7969C144.438 62.7969 145.193 62.6406 145.891 62.3281C146.599 62.0052 147.208 61.5208 147.719 60.875L149.906 63.25C149.552 63.7604 149.068 64.25 148.453 64.7188C147.849 65.1875 147.12 65.5729 146.266 65.875C145.411 66.1667 144.438 66.3125 143.344 66.3125ZM158.375 62.7188L162.125 49.0938H166.828L161.125 66H158.281L158.375 62.7188ZM155.797 49.0938L159.562 62.7344L159.641 66H156.781L151.078 49.0938H155.797ZM176.406 66.3125C175.094 66.3125 173.917 66.1042 172.875 65.6875C171.833 65.2604 170.948 64.6719 170.219 63.9219C169.5 63.1719 168.948 62.3021 168.562 61.3125C168.177 60.3125 167.984 59.25 167.984 58.125V57.5C167.984 56.2188 168.167 55.0469 168.531 53.9844C168.896 52.9219 169.417 52 170.094 51.2188C170.781 50.4375 171.615 49.8385 172.594 49.4219C173.573 48.9948 174.677 48.7812 175.906 48.7812C177.104 48.7812 178.167 48.9792 179.094 49.375C180.021 49.7708 180.797 50.3333 181.422 51.0625C182.057 51.7917 182.536 52.6667 182.859 53.6875C183.182 54.6979 183.344 55.8229 183.344 57.0625V58.9375H169.906V55.9375H178.922V55.5938C178.922 54.9688 178.807 54.4115 178.578 53.9219C178.359 53.4219 178.026 53.026 177.578 52.7344C177.13 52.4427 176.557 52.2969 175.859 52.2969C175.266 52.2969 174.755 52.4271 174.328 52.6875C173.901 52.9479 173.552 53.3125 173.281 53.7812C173.021 54.25 172.823 54.8021 172.688 55.4375C172.562 56.0625 172.5 56.75 172.5 57.5V58.125C172.5 58.8021 172.594 59.4271 172.781 60C172.979 60.5729 173.255 61.0677 173.609 61.4844C173.974 61.901 174.411 62.224 174.922 62.4531C175.443 62.6823 176.031 62.7969 176.688 62.7969C177.5 62.7969 178.255 62.6406 178.953 62.3281C179.661 62.0052 180.271 61.5208 180.781 60.875L182.969 63.25C182.615 63.7604 182.13 64.25 181.516 64.7188C180.911 65.1875 180.182 65.5729 179.328 65.875C178.474 66.1667 177.5 66.3125 176.406 66.3125ZM190.656 42V66H186.141V42H190.656ZM193.656 57.7188V57.3906C193.656 56.151 193.833 55.0104 194.188 53.9688C194.542 52.9167 195.057 52.0052 195.734 51.2344C196.411 50.4635 197.245 49.8646 198.234 49.4375C199.224 49 200.359 48.7812 201.641 48.7812C202.922 48.7812 204.062 49 205.062 49.4375C206.062 49.8646 206.901 50.4635 207.578 51.2344C208.266 52.0052 208.786 52.9167 209.141 53.9688C209.495 55.0104 209.672 56.151 209.672 57.3906V57.7188C209.672 58.9479 209.495 60.0885 209.141 61.1406C208.786 62.1823 208.266 63.0938 207.578 63.875C206.901 64.6458 206.068 65.2448 205.078 65.6719C204.089 66.099 202.953 66.3125 201.672 66.3125C200.391 66.3125 199.25 66.099 198.25 65.6719C197.26 65.2448 196.422 64.6458 195.734 63.875C195.057 63.0938 194.542 62.1823 194.188 61.1406C193.833 60.0885 193.656 58.9479 193.656 57.7188ZM198.156 57.3906V57.7188C198.156 58.4271 198.219 59.0885 198.344 59.7031C198.469 60.3177 198.667 60.8594 198.938 61.3281C199.219 61.7865 199.583 62.1458 200.031 62.4062C200.479 62.6667 201.026 62.7969 201.672 62.7969C202.297 62.7969 202.833 62.6667 203.281 62.4062C203.729 62.1458 204.089 61.7865 204.359 61.3281C204.63 60.8594 204.828 60.3177 204.953 59.7031C205.089 59.0885 205.156 58.4271 205.156 57.7188V57.3906C205.156 56.7031 205.089 56.0573 204.953 55.4531C204.828 54.8385 204.625 54.2969 204.344 53.8281C204.073 53.349 203.714 52.974 203.266 52.7031C202.818 52.4323 202.276 52.2969 201.641 52.2969C201.005 52.2969 200.464 52.4323 200.016 52.7031C199.578 52.974 199.219 53.349 198.938 53.8281C198.667 54.2969 198.469 54.8385 198.344 55.4531C198.219 56.0573 198.156 56.7031 198.156 57.3906ZM216.938 52.3438V72.5H212.438V49.0938H216.609L216.938 52.3438ZM227.641 57.3594V57.6875C227.641 58.9167 227.495 60.0573 227.203 61.1094C226.922 62.1615 226.505 63.0781 225.953 63.8594C225.401 64.6302 224.714 65.2344 223.891 65.6719C223.078 66.099 222.141 66.3125 221.078 66.3125C220.047 66.3125 219.151 66.1042 218.391 65.6875C217.63 65.2708 216.99 64.6875 216.469 63.9375C215.958 63.1771 215.547 62.2969 215.234 61.2969C214.922 60.2969 214.682 59.224 214.516 58.0781V57.2188C214.682 55.9896 214.922 54.8646 215.234 53.8438C215.547 52.8125 215.958 51.9219 216.469 51.1719C216.99 50.4115 217.625 49.8229 218.375 49.4062C219.135 48.9896 220.026 48.7812 221.047 48.7812C222.12 48.7812 223.062 48.9844 223.875 49.3906C224.698 49.7969 225.385 50.3802 225.938 51.1406C226.5 51.901 226.922 52.8073 227.203 53.8594C227.495 54.9115 227.641 56.0781 227.641 57.3594ZM223.125 57.6875V57.3594C223.125 56.6406 223.062 55.9792 222.938 55.375C222.823 54.7604 222.635 54.224 222.375 53.7656C222.125 53.3073 221.792 52.9531 221.375 52.7031C220.969 52.4427 220.474 52.3125 219.891 52.3125C219.276 52.3125 218.75 52.4115 218.312 52.6094C217.885 52.8073 217.536 53.0938 217.266 53.4688C216.995 53.8438 216.792 54.2917 216.656 54.8125C216.521 55.3333 216.438 55.9219 216.406 56.5781V58.75C216.458 59.5208 216.604 60.2135 216.844 60.8281C217.083 61.4323 217.453 61.9115 217.953 62.2656C218.453 62.6198 219.109 62.7969 219.922 62.7969C220.516 62.7969 221.016 62.6667 221.422 62.4062C221.828 62.1354 222.156 61.7656 222.406 61.2969C222.667 60.8281 222.849 60.2865 222.953 59.6719C223.068 59.0573 223.125 58.3958 223.125 57.6875ZM238.219 66.3125C236.906 66.3125 235.729 66.1042 234.688 65.6875C233.646 65.2604 232.76 64.6719 232.031 63.9219C231.312 63.1719 230.76 62.3021 230.375 61.3125C229.99 60.3125 229.797 59.25 229.797 58.125V57.5C229.797 56.2188 229.979 55.0469 230.344 53.9844C230.708 52.9219 231.229 52 231.906 51.2188C232.594 50.4375 233.427 49.8385 234.406 49.4219C235.385 48.9948 236.49 48.7812 237.719 48.7812C238.917 48.7812 239.979 48.9792 240.906 49.375C241.833 49.7708 242.609 50.3333 243.234 51.0625C243.87 51.7917 244.349 52.6667 244.672 53.6875C244.995 54.6979 245.156 55.8229 245.156 57.0625V58.9375H231.719V55.9375H240.734V55.5938C240.734 54.9688 240.62 54.4115 240.391 53.9219C240.172 53.4219 239.839 53.026 239.391 52.7344C238.943 52.4427 238.37 52.2969 237.672 52.2969C237.078 52.2969 236.568 52.4271 236.141 52.6875C235.714 52.9479 235.365 53.3125 235.094 53.7812C234.833 54.25 234.635 54.8021 234.5 55.4375C234.375 56.0625 234.312 56.75 234.312 57.5V58.125C234.312 58.8021 234.406 59.4271 234.594 60C234.792 60.5729 235.068 61.0677 235.422 61.4844C235.786 61.901 236.224 62.224 236.734 62.4531C237.255 62.6823 237.844 62.7969 238.5 62.7969C239.312 62.7969 240.068 62.6406 240.766 62.3281C241.474 62.0052 242.083 61.5208 242.594 60.875L244.781 63.25C244.427 63.7604 243.943 64.25 243.328 64.7188C242.724 65.1875 241.995 65.5729 241.141 65.875C240.286 66.1667 239.312 66.3125 238.219 66.3125ZM252.219 52.7812V66H247.719V49.0938H251.953L252.219 52.7812ZM257.312 48.9844L257.234 53.1562C257.016 53.125 256.75 53.099 256.438 53.0781C256.135 53.0469 255.859 53.0312 255.609 53.0312C254.974 53.0312 254.422 53.1146 253.953 53.2812C253.495 53.4375 253.109 53.6719 252.797 53.9844C252.495 54.2969 252.266 54.6771 252.109 55.125C251.964 55.5729 251.88 56.0833 251.859 56.6562L250.953 56.375C250.953 55.2812 251.062 54.276 251.281 53.3594C251.5 52.4323 251.818 51.625 252.234 50.9375C252.661 50.25 253.182 49.7188 253.797 49.3438C254.411 48.9688 255.115 48.7812 255.906 48.7812C256.156 48.7812 256.411 48.8021 256.672 48.8438C256.932 48.875 257.146 48.9219 257.312 48.9844Z" fill="#626262"/>
</svg>
